<svg xmlns="http://www.w3.org/2000/svg" viewBox="0 0 937 188" width="937" height="188">
<rect x="28" y="28" width="132" height="132" rx="29" fill="#1F2A33"/>
<rect x="48" y="50" width="3" height="92" rx="1.5" fill="#3A4A57"/>
<rect x="57" y="52" width="58" height="10" rx="5.0" fill="#E1262E"/>
<rect x="70" y="78" width="46" height="10" rx="5.0" fill="#E7EDF2"/>
<rect x="70" y="104" width="34" height="10" rx="5.0" fill="#2D9CDB"/>
<rect x="57" y="130" width="48" height="10" rx="5.0" fill="#E7EDF2"/>
<g transform="translate(200,128)"><path d="M6.09,-0.00 L6.09,-54.20 L24.20,-54.20 L24.20,-38.41 L21.50,-42.91 Q23.91,-49.00 29.30,-52.05 Q34.70,-55.09 42.41,-55.09 L42.41,-38.00 Q41.09,-38.20 40.14,-38.25 Q39.20,-38.30 38.09,-38.30 Q32.30,-38.30 28.69,-35.14 Q25.09,-32.00 25.09,-24.91 L25.09,-0.00 L6.09,-0.00 Z M83.50,-0.00 L83.50,-10.09 L82.21,-12.59 L82.21,-31.20 Q82.21,-35.70 79.46,-38.14 Q76.71,-40.59 70.71,-40.59 Q66.80,-40.59 62.80,-39.34 Q58.80,-38.09 56.00,-35.91 L49.60,-48.80 Q54.21,-51.80 60.64,-53.44 Q67.10,-55.09 73.50,-55.09 Q86.71,-55.09 93.96,-49.05 Q101.21,-43.00 101.21,-30.09 L101.21,-0.00 L83.50,-0.00 Z M67.50,0.91 Q61.00,0.91 56.50,-1.30 Q52.00,-3.50 49.64,-7.30 Q47.30,-11.09 47.30,-15.80 Q47.30,-20.80 49.85,-24.44 Q52.39,-28.09 57.69,-30.05 Q63.00,-32.00 71.39,-32.00 L84.21,-32.00 L84.21,-22.09 L74.00,-22.09 Q69.39,-22.09 67.55,-20.59 Q65.71,-19.09 65.71,-16.59 Q65.71,-14.09 67.60,-12.59 Q69.50,-11.09 72.80,-11.09 Q75.89,-11.09 78.44,-12.64 Q81.00,-14.20 82.21,-17.41 L84.80,-10.41 Q83.30,-4.80 78.94,-1.94 Q74.60,0.91 67.50,0.91 Z M136.80,0.91 Q129.40,0.91 123.35,-2.55 Q117.30,-6.00 113.69,-12.25 Q110.10,-18.50 110.10,-27.20 Q110.10,-35.80 113.69,-42.05 Q117.30,-48.30 123.35,-51.69 Q129.40,-55.09 136.80,-55.09 Q143.80,-55.09 148.65,-52.09 Q153.51,-49.09 156.01,-42.89 Q158.51,-36.70 158.51,-27.20 Q158.51,-17.50 156.10,-11.30 Q153.69,-5.09 148.90,-2.09 Q144.10,0.91 136.80,0.91 Z M140.80,-14.20 Q144.01,-14.20 146.55,-15.70 Q149.10,-17.20 150.60,-20.14 Q152.10,-23.09 152.10,-27.20 Q152.10,-31.30 150.60,-34.14 Q149.10,-37.00 146.55,-38.50 Q144.01,-40.00 140.80,-40.00 Q137.51,-40.00 134.94,-38.50 Q132.40,-37.00 130.90,-34.14 Q129.40,-31.30 129.40,-27.20 Q129.40,-23.09 130.90,-20.14 Q132.40,-17.20 134.94,-15.70 Q137.51,-14.20 140.80,-14.20 Z M152.69,-0.00 L152.69,-9.30 L152.80,-27.20 L151.80,-45.09 L151.80,-74.20 L170.80,-74.20 L170.80,-0.00 L152.69,-0.00 Z M183.90,-0.00 L183.90,-70.00 L238.81,-70.00 L238.81,-54.70 L203.70,-54.70 L203.70,-0.00 L183.90,-0.00 Z M202.31,-24.00 L202.31,-39.30 L234.60,-39.30 L234.60,-24.00 L202.31,-24.00 Z M274.40,0.91 Q265.51,0.91 258.60,-2.69 Q251.69,-6.30 247.74,-12.64 Q243.80,-19.00 243.80,-27.20 Q243.80,-35.41 247.74,-41.70 Q251.69,-48.00 258.60,-51.55 Q265.51,-55.09 274.40,-55.09 Q283.30,-55.09 290.24,-51.55 Q297.19,-48.00 301.10,-41.70 Q305.01,-35.41 305.01,-27.20 Q305.01,-19.00 301.10,-12.64 Q297.19,-6.30 290.24,-2.69 Q283.30,0.91 274.40,0.91 Z M274.40,-14.20 Q277.69,-14.20 280.24,-15.70 Q282.80,-17.20 284.30,-20.14 Q285.80,-23.09 285.80,-27.20 Q285.80,-31.30 284.30,-34.14 Q282.80,-37.00 280.24,-38.50 Q277.69,-40.00 274.40,-40.00 Q271.19,-40.00 268.65,-38.50 Q266.10,-37.00 264.55,-34.14 Q263.01,-31.30 263.01,-27.20 Q263.01,-23.09 264.55,-20.14 Q266.10,-17.20 268.65,-15.70 Q271.19,-14.20 274.40,-14.20 Z M313.79,-0.00 L313.79,-54.20 L331.90,-54.20 L331.90,-38.41 L329.20,-42.91 Q331.61,-49.00 337.00,-52.05 Q342.40,-55.09 350.11,-55.09 L350.11,-38.00 Q348.79,-38.20 347.84,-38.25 Q346.90,-38.30 345.79,-38.30 Q340.00,-38.30 336.39,-35.14 Q332.79,-32.00 332.79,-24.91 L332.79,-0.00 L313.79,-0.00 Z M358.09,-0.00 L358.09,-54.20 L376.20,-54.20 L376.20,-39.09 L372.59,-43.41 Q375.59,-49.20 380.80,-52.14 Q386.00,-55.09 392.41,-55.09 Q399.70,-55.09 405.25,-51.34 Q410.80,-47.59 412.70,-39.70 L406.50,-41.00 Q409.41,-47.59 415.25,-51.34 Q421.09,-55.09 428.70,-55.09 Q435.00,-55.09 439.95,-52.55 Q444.91,-50.00 447.75,-44.70 Q450.59,-39.41 450.59,-31.00 L450.59,-0.00 L431.59,-0.00 L431.59,-27.91 Q431.59,-33.70 429.39,-36.34 Q427.20,-39.00 423.41,-39.00 Q420.70,-39.00 418.50,-37.70 Q416.30,-36.41 415.09,-33.75 Q413.91,-31.09 413.91,-26.91 L413.91,-0.00 L394.91,-0.00 L394.91,-27.91 Q394.91,-33.70 392.75,-36.34 Q390.59,-39.00 386.70,-39.00 Q383.91,-39.00 381.75,-37.70 Q379.59,-36.41 378.34,-33.75 Q377.09,-31.09 377.09,-26.91 L377.09,-0.00 L358.09,-0.00 Z M495.70,-0.00 L495.70,-10.09 L494.41,-12.59 L494.41,-31.20 Q494.41,-35.70 491.66,-38.14 Q488.91,-40.59 482.91,-40.59 Q479.00,-40.59 475.00,-39.34 Q471.00,-38.09 468.20,-35.91 L461.80,-48.80 Q466.41,-51.80 472.84,-53.44 Q479.30,-55.09 485.70,-55.09 Q498.91,-55.09 506.16,-49.05 Q513.41,-43.00 513.41,-30.09 L513.41,-0.00 L495.70,-0.00 Z M479.70,0.91 Q473.20,0.91 468.70,-1.30 Q464.20,-3.50 461.84,-7.30 Q459.50,-11.09 459.50,-15.80 Q459.50,-20.80 462.05,-24.44 Q464.59,-28.09 469.89,-30.05 Q475.20,-32.00 483.59,-32.00 L496.41,-32.00 L496.41,-22.09 L486.20,-22.09 Q481.59,-22.09 479.75,-20.59 Q477.91,-19.09 477.91,-16.59 Q477.91,-14.09 479.80,-12.59 Q481.70,-11.09 485.00,-11.09 Q488.09,-11.09 490.64,-12.64 Q493.20,-14.20 494.41,-17.41 L497.00,-10.41 Q495.50,-4.80 491.14,-1.94 Q486.80,0.91 479.70,0.91 Z M549.60,0.91 Q539.21,0.91 533.39,-4.25 Q527.60,-9.41 527.60,-19.80 L527.60,-66.30 L546.60,-66.30 L546.60,-20.00 Q546.60,-17.09 548.19,-15.44 Q549.80,-13.80 552.30,-13.80 Q555.71,-13.80 558.10,-15.50 L562.80,-2.20 Q560.39,-0.59 556.89,0.16 Q553.39,0.91 549.60,0.91 Z M519.71,-40.09 L519.71,-54.20 L559.00,-54.20 L559.00,-40.09 L519.71,-40.09 Z M594.30,0.91 Q583.91,0.91 578.09,-4.25 Q572.30,-9.41 572.30,-19.80 L572.30,-66.30 L591.30,-66.30 L591.30,-20.00 Q591.30,-17.09 592.89,-15.44 Q594.50,-13.80 597.00,-13.80 Q600.41,-13.80 602.80,-15.50 L607.50,-2.20 Q605.09,-0.59 601.59,0.16 Q598.09,0.91 594.30,0.91 Z M564.41,-40.09 L564.41,-54.20 L603.70,-54.20 L603.70,-40.09 L564.41,-40.09 Z M643.20,0.91 Q633.61,0.91 626.45,-2.75 Q619.29,-6.41 615.34,-12.75 Q611.40,-19.09 611.40,-27.20 Q611.40,-35.30 615.25,-41.64 Q619.11,-48.00 625.90,-51.55 Q632.70,-55.09 641.20,-55.09 Q649.20,-55.09 655.79,-51.84 Q662.40,-48.59 666.29,-42.30 Q670.20,-36.00 670.20,-27.00 Q670.20,-26.00 670.09,-24.70 Q670.00,-23.41 669.90,-22.30 L627.00,-22.30 L627.00,-32.30 L659.79,-32.30 L652.61,-29.50 Q652.70,-33.20 651.25,-35.89 Q649.79,-38.59 647.25,-40.09 Q644.70,-41.59 641.29,-41.59 Q637.90,-41.59 635.34,-40.09 Q632.79,-38.59 631.39,-35.84 Q630.00,-33.09 630.00,-29.41 L630.00,-26.50 Q630.00,-22.50 631.64,-19.59 Q633.29,-16.70 636.39,-15.14 Q639.50,-13.59 643.79,-13.59 Q647.79,-13.59 650.64,-14.75 Q653.50,-15.91 656.29,-18.30 L666.29,-7.91 Q662.40,-3.59 656.70,-1.34 Q651.00,0.91 643.20,0.91 Z M678.99,-0.00 L678.99,-54.20 L697.10,-54.20 L697.10,-38.41 L694.40,-42.91 Q696.81,-49.00 702.20,-52.05 Q707.60,-55.09 715.31,-55.09 L715.31,-38.00 Q713.99,-38.20 713.04,-38.25 Q712.10,-38.30 710.99,-38.30 Q705.20,-38.30 701.59,-35.14 Q697.99,-32.00 697.99,-24.91 L697.99,-0.00 L678.99,-0.00 Z" fill="#1F2A33"/><path d="M6.09,-0.00 L6.09,-54.20 L24.20,-54.20 L24.20,-38.41 L21.50,-42.91 Q23.91,-49.00 29.30,-52.05 Q34.70,-55.09 42.41,-55.09 L42.41,-38.00 Q41.09,-38.20 40.14,-38.25 Q39.20,-38.30 38.09,-38.30 Q32.30,-38.30 28.69,-35.14 Q25.09,-32.00 25.09,-24.91 L25.09,-0.00 L6.09,-0.00 Z M83.50,-0.00 L83.50,-10.09 L82.21,-12.59 L82.21,-31.20 Q82.21,-35.70 79.46,-38.14 Q76.71,-40.59 70.71,-40.59 Q66.80,-40.59 62.80,-39.34 Q58.80,-38.09 56.00,-35.91 L49.60,-48.80 Q54.21,-51.80 60.64,-53.44 Q67.10,-55.09 73.50,-55.09 Q86.71,-55.09 93.96,-49.05 Q101.21,-43.00 101.21,-30.09 L101.21,-0.00 L83.50,-0.00 Z M67.50,0.91 Q61.00,0.91 56.50,-1.30 Q52.00,-3.50 49.64,-7.30 Q47.30,-11.09 47.30,-15.80 Q47.30,-20.80 49.85,-24.44 Q52.39,-28.09 57.69,-30.05 Q63.00,-32.00 71.39,-32.00 L84.21,-32.00 L84.21,-22.09 L74.00,-22.09 Q69.39,-22.09 67.55,-20.59 Q65.71,-19.09 65.71,-16.59 Q65.71,-14.09 67.60,-12.59 Q69.50,-11.09 72.80,-11.09 Q75.89,-11.09 78.44,-12.64 Q81.00,-14.20 82.21,-17.41 L84.80,-10.41 Q83.30,-4.80 78.94,-1.94 Q74.60,0.91 67.50,0.91 Z M136.80,0.91 Q129.40,0.91 123.35,-2.55 Q117.30,-6.00 113.69,-12.25 Q110.10,-18.50 110.10,-27.20 Q110.10,-35.80 113.69,-42.05 Q117.30,-48.30 123.35,-51.69 Q129.40,-55.09 136.80,-55.09 Q143.80,-55.09 148.65,-52.09 Q153.51,-49.09 156.01,-42.89 Q158.51,-36.70 158.51,-27.20 Q158.51,-17.50 156.10,-11.30 Q153.69,-5.09 148.90,-2.09 Q144.10,0.91 136.80,0.91 Z M140.80,-14.20 Q144.01,-14.20 146.55,-15.70 Q149.10,-17.20 150.60,-20.14 Q152.10,-23.09 152.10,-27.20 Q152.10,-31.30 150.60,-34.14 Q149.10,-37.00 146.55,-38.50 Q144.01,-40.00 140.80,-40.00 Q137.51,-40.00 134.94,-38.50 Q132.40,-37.00 130.90,-34.14 Q129.40,-31.30 129.40,-27.20 Q129.40,-23.09 130.90,-20.14 Q132.40,-17.20 134.94,-15.70 Q137.51,-14.20 140.80,-14.20 Z M152.69,-0.00 L152.69,-9.30 L152.80,-27.20 L151.80,-45.09 L151.80,-74.20 L170.80,-74.20 L170.80,-0.00 L152.69,-0.00 Z" fill="#E1262E"/></g>
</svg>