<?xml version="1.0" encoding="UTF-8" standalone="no"?>
<svg
   sodipodi:docname="radprogrammer-logo-offwhite.svg"
   inkscape:version="1.4 (86a8ad7, 2024-10-11)"
   id="svg8"
   version="1.1"
   viewBox="0 0 281.51627 279.04645"
   height="279.04645mm"
   width="281.51627mm"
   inkscape:export-filename="f:\radprogrammer-logo.png"
   inkscape:export-xdpi="23.039999"
   inkscape:export-ydpi="23.039999"
   xml:space="preserve"
   xmlns:inkscape="http://www.inkscape.org/namespaces/inkscape"
   xmlns:sodipodi="http://sodipodi.sourceforge.net/DTD/sodipodi-0.dtd"
   xmlns="http://www.w3.org/2000/svg"
   xmlns:svg="http://www.w3.org/2000/svg"
   xmlns:rdf="http://www.w3.org/1999/02/22-rdf-syntax-ns#"
   xmlns:cc="http://creativecommons.org/ns#"
   xmlns:dc="http://purl.org/dc/elements/1.1/"><style
     id="radprogrammer-logo-color-scheme"><![CDATA[
:root,
svg {
  color-scheme: only light;
  forced-color-adjust: none;
}
svg * {
  forced-color-adjust: none;
}
]]></style><defs
     id="defs2"><clipPath
       clipPathUnits="userSpaceOnUse"
       id="clipPath851"><path
         d="M 0,800 H 800 V 0 H 0 Z"
         id="path849" /></clipPath><clipPath
       clipPathUnits="userSpaceOnUse"
       id="clipPath911"><path
         d="M 99.2793,313.331 H 702.252 V 25.5942 H 99.2793 Z"
         id="path909" /></clipPath><clipPath
       clipPathUnits="userSpaceOnUse"
       id="clipPath1011"><path
         d="M 234.433,582.819 H 362.461 V 476.241 H 234.433 Z"
         id="path1009" /></clipPath><clipPath
       clipPathUnits="userSpaceOnUse"
       id="clipPath1035"><path
         d="M 432.39,582.819 H 560.417 V 476.241 H 432.39 Z"
         id="path1033" /></clipPath><clipPath
       clipPathUnits="userSpaceOnUse"
       id="clipPath1071"><path
         d="M 323.555,636.241 H 479.426 V 612.043 H 323.555 Z"
         id="path1069" /></clipPath><clipPath
       clipPathUnits="userSpaceOnUse"
       id="clipPath1107"><path
         d="M 311.68,707.593 H 470.482 V 645.036 H 311.68 Z"
         id="path1105" /></clipPath></defs><sodipodi:namedview
     inkscape:window-maximized="1"
     inkscape:window-y="-8"
     inkscape:window-x="-8"
     inkscape:window-height="1369"
     inkscape:window-width="2560"
     fit-margin-bottom="0"
     fit-margin-right="0"
     fit-margin-left="0"
     fit-margin-top="0"
     showgrid="false"
     inkscape:document-rotation="0"
     inkscape:current-layer="g847"
     inkscape:document-units="mm"
     inkscape:cy="618.57143"
     inkscape:cx="511.42857"
     inkscape:zoom="0.35"
     inkscape:pageshadow="2"
     inkscape:pageopacity="0.0"
     borderopacity="1.0"
     bordercolor="#666666"
     pagecolor="#ffffff"
     id="base"
     inkscape:showpageshadow="2"
     inkscape:pagecheckerboard="0"
     inkscape:deskcolor="#d1d1d1" /><metadata
     id="metadata5"><rdf:RDF><cc:Work
         rdf:about=""><dc:format>image/svg+xml</dc:format><dc:type
           rdf:resource="http://purl.org/dc/dcmitype/StillImage" /></cc:Work></rdf:RDF></metadata><g
     transform="translate(31.548013,12.649193)"
     id="layer1"
     inkscape:groupmode="layer"
     inkscape:label="Layer 1"><g
       id="g841"
       inkscape:label="Cutout - Mascot with Laptop"
       transform="matrix(0.35277777,0,0,-0.35277777,-32.253965,267.35516)"><g
         id="g845"><g
           id="g847"
           clip-path="url(#clipPath851)"><rect
             style="font-variation-settings:'wght' 800;fill:#f4f6f8;stroke:#43a055;stroke-width:0.283465;stroke-linejoin:bevel;stroke-opacity:0.419498;fill-opacity:1"
             id="rect2"
             width="801.42859"
             height="790.71436"
             x="2.1428573"
             y="-793.57141"
             transform="scale(1,-1)"
             rx="2.6237617" /><g
             id="g853"
             transform="translate(323.5552,621.5336)"><path
               d="m 0,0 c 0,1.192 0.05,2.435 0.099,3.627 0.199,3.478 0.597,6.857 1.193,10.186 11.776,2.137 82.184,13.764 153.337,0.348 0.646,-3.677 1.143,-7.404 1.242,-11.18 0.1,-0.993 0.1,-1.987 0.1,-2.981 0,-3.18 -0.249,-6.36 -0.597,-9.491 -23.949,2.932 -50.185,5.168 -77.612,5.764 v 0.05 c -0.199,0 -0.348,-0.05 -0.547,-0.05 -0.149,0 -0.298,0.05 -0.547,0.05 v -0.05 C 49.787,-4.323 24.099,-6.459 0.596,-9.292 0.248,-6.211 0,-3.13 0,0 M 146.927,36.372 C 88.345,45.465 33.39,39.601 8.845,35.924 21.863,60.868 47.949,77.96 77.96,77.96 c 29.913,0 55.85,-16.894 68.967,-41.588 M 266.278,-8.149 c -4.423,18.881 -10.981,36.57 -19.379,52.818 -4.024,7.95 -8.546,15.553 -13.465,22.758 -5.565,8.248 -11.677,15.949 -18.136,23.154 -36.024,39.75 -85.265,63.104 -137.238,63.104 h -0.05 -0.099 c -9.888,0 -19.726,-0.845 -29.316,-2.534 -0.1,0 -0.149,-0.05 -0.249,-0.05 -40.147,-6.857 -77.314,-27.676 -106.133,-58.88 -6.559,-7.106 -12.72,-14.758 -18.335,-22.906 -4.969,-7.155 -9.59,-14.658 -13.714,-22.509 -1.888,-3.577 -3.677,-7.205 -5.366,-10.931 -0.05,-0.05 -0.099,-0.1 -0.099,-0.149 -6.311,-13.714 -11.379,-28.372 -15.006,-43.875 -2.385,-10.285 -4.025,-20.62 -5.068,-30.856 6.956,1.888 16.198,4.323 27.328,6.906 8.248,1.938 17.59,3.975 27.776,6.013 36.769,7.304 85.165,14.409 137.735,15.602 v 0.05 c 0.198,0 0.347,-0.05 0.546,-0.05 0.199,0 0.348,0.05 0.547,0.05 v -0.05 c 52.57,-1.193 100.916,-8.298 137.685,-15.602 9.441,-1.888 18.086,-3.777 25.837,-5.565 11.975,-2.783 21.913,-5.317 29.267,-7.354 -0.994,10.236 -2.683,20.571 -5.068,30.856"
               style="fill:#da1e25;fill-opacity:1;fill-rule:nonzero;stroke:none"
               id="path855" /></g><g
             id="g857"
             transform="translate(630.7599,350.3026)"><path
               d="m 0,0 -42.21,6.318 -123.209,-10.091 -1.009,-0.088 c -29.486,-5.266 -77.356,-13.602 -83.718,-14.48 -9.127,0.307 -112.151,4.432 -167.218,6.626 l -48.836,5.792 c 40.631,51.117 89.73,68.141 90.257,68.317 l -3.335,10.048 H -82.007 L -85.342,62.394 C -84.859,62.218 -39.534,46.51 0,0"
               style="fill:#da1e25;fill-opacity:1;fill-rule:nonzero;stroke:none"
               id="path859" /></g><g
             id="g861"
             transform="translate(545.8566,413.9691)"><path
               d="m 0,0 h -281.211 l 3.334,-10.048 c -0.483,-0.176 -45.369,-15.708 -84.815,-61.736 l -18.604,2.194 c 40.63,51.117 89.73,68.142 90.256,68.317 l -3.335,10.049 H 2.896 Z"
               style="fill:#ffffff;fill-opacity:1;fill-rule:nonzero;stroke:none"
               id="path863" /></g><g
             id="g865"
             transform="translate(630.7599,350.3026)"><path
               d="m 0,0 -24.572,3.686 c -36.33,36.901 -73.495,49.757 -73.933,49.932 l 3.334,10.048 h -281.211 l -2.896,8.776 H -82.007 L -85.342,62.394 C -84.859,62.218 -39.534,46.51 0,0"
               style="fill:#ffffff;fill-opacity:1;fill-rule:nonzero;stroke:none"
               id="path867" /></g><g
             id="g869"
             transform="translate(677.2701,321.9137)"><path
               d="M 0,0 -89.423,13.339 -209.691,3.51 c -83.148,-14.743 -85.342,-14.743 -86.527,-14.743 -2.457,0 -129.921,5.134 -168.929,6.714 l -0.833,0.044 -84.596,10.048 9.784,14.435 c 46.248,68.537 108.993,90.037 111.625,90.915 l 3.335,-10.092 h 0.044 l 3.335,-10.048 c -0.527,-0.176 -49.626,-17.2 -90.257,-68.317 l 48.836,-5.792 c 55.066,-2.194 158.091,-6.319 167.218,-6.626 6.362,0.878 54.232,9.214 83.718,14.48 l 1.009,0.088 123.209,10.091 42.21,-6.318 c -39.534,46.51 -84.86,62.218 -85.342,62.394 l 3.335,10.048 h 0.043 l 3.335,10.092 c 2.633,-0.878 65.378,-22.378 111.625,-90.915 z"
               style="fill:#100f0d;fill-opacity:1;fill-rule:nonzero;stroke:none"
               id="path871" /></g><g
             id="g873"
             transform="translate(584.9075,569.8839)"><path
               d="m 0,0 c 1.951,-0.508 3.294,-2.288 3.252,-4.303 -1.828,-86.383 -57.323,-164.746 -140.104,-187.552 -15.757,-4.354 -31.637,-6.424 -47.273,-6.38 -15.635,-0.044 -31.474,2.026 -47.272,6.38 -82.78,22.806 -138.275,101.168 -140.103,187.55 -0.043,2.016 1.301,3.797 3.253,4.304 26.602,6.911 99.992,24.049 184.122,25.906 C -99.959,24.048 -26.57,6.912 0,0"
               style="fill:#fcd9ad;fill-opacity:1;fill-rule:nonzero;stroke:none"
               id="path875" /></g><g
             id="g877"
             transform="translate(188.0381,568.846)"><path
               d="m 0,0 c 0,0 -6.171,1.852 -7.275,0.613 -1.103,-1.239 -9.923,-30.8 -9.923,-30.8 0,0 0.645,-8.154 1.825,-17.858 1.18,-9.703 0.16,-9.95 7.232,-20.87 7.072,-10.92 16.514,-21.373 17.092,-22.421 0.577,-1.048 10.554,-6.884 10.554,-6.884 0,0 4.32,1.636 4.951,4.245 0.631,2.609 -4.947,34.385 -4.974,35.386 -0.027,1.001 -2.092,39.701 -2.092,39.701 L 9.088,-6.76 Z"
               style="fill:#fcd9ad;fill-opacity:1;fill-rule:nonzero;stroke:none"
               id="path879" /></g><g
             id="g881"
             transform="translate(188.0381,568.846)"><path
               d="m 0,0 c 0,0 -6.171,1.852 -7.275,0.613 -1.103,-1.239 -9.923,-30.8 -9.923,-30.8 0,0 0.645,-8.154 1.825,-17.858 1.18,-9.703 0.16,-9.95 7.232,-20.87 7.072,-10.92 16.514,-21.373 17.092,-22.421 0.577,-1.048 10.554,-6.884 10.554,-6.884 0,0 4.32,1.636 4.951,4.245 0.631,2.609 -4.947,34.385 -4.974,35.386 -0.027,1.001 -2.092,39.701 -2.092,39.701 L 9.088,-6.76 Z"
               style="fill:#e7af68;fill-opacity:1;fill-rule:nonzero;stroke:none"
               id="path883" /></g><g
             id="g885"
             transform="translate(612.1923,568.846)"><path
               d="m 0,0 c 0,0 6.171,1.852 7.275,0.613 1.103,-1.239 9.923,-30.8 9.923,-30.8 0,0 -0.645,-8.154 -1.825,-17.858 -1.18,-9.703 -0.16,-9.95 -7.232,-20.87 -7.072,-10.92 -16.514,-21.373 -17.092,-22.421 -0.577,-1.048 -10.554,-6.884 -10.554,-6.884 0,0 -17.501,-2.609 -18.133,0 -0.631,2.609 18.129,38.63 18.156,39.631 0.027,1.001 2.092,39.701 2.092,39.701 l 8.302,12.128 z"
               style="fill:#fcd9ad;fill-opacity:1;fill-rule:nonzero;stroke:none"
               id="path887" /></g><g
             id="g889"
             transform="translate(228.7681,534.9655)"><path
               d="m 0,0 -20.567,25.567 v 21.98 H -3.09 L 3.972,34.921 Z"
               style="fill:#100f0d;fill-opacity:1;fill-rule:nonzero;stroke:none"
               id="path891" /></g><g
             id="g893"
             transform="translate(569.701,560.5322)"><path
               d="M 0,0 V 19.724 H 17.362 L 27.584,9.354 17.362,-9.866 9.278,-12.783 Z"
               style="fill:#100f0d;fill-opacity:1;fill-rule:nonzero;stroke:none"
               id="path895" /></g><g
             id="g897"
             transform="translate(739.5922,25.5765)"><path
               d="m 0,0 c 0,-8.546 -7.006,-15.503 -15.552,-15.503 h -648.08 c -8.596,0 -15.552,6.957 -15.552,15.503 0,8.596 6.956,15.602 15.552,15.602 h 648.08 C -7.006,15.602 0,8.596 0,0"
               style="fill:#100f0d;fill-opacity:1;fill-rule:nonzero;stroke:none"
               id="path899" /></g><g
             id="g901"
             transform="translate(656.4084,25.5867)"><path
               d="m 0,0 h -514.926 l -41.37,262.049 c -6.118,36.328 21.884,69.44 58.723,69.44 h 483.859 c 37.102,0 65.172,-33.561 58.612,-70.079 z"
               style="fill:#263137;fill-opacity:1;fill-rule:nonzero;stroke:none"
               id="path903" /></g><g
             id="g905"><g
               id="g907" /><g
               id="g919"><g
                 clip-path="url(#clipPath911)"
                 opacity="0.5"
                 id="g917"><g
                   transform="translate(701.3026,286.99)"
                   id="g915"><path
                     d="M 0,0 -44.907,-261.396 H -559.832 L -601.183,0.633 c -1.477,8.801 -0.965,17.45 1.205,25.437 l 40.146,-254.313 H -44.907 L -1.175,26.341 C 1.115,18.053 1.627,9.132 0,0"
                     style="fill:#263137;fill-opacity:1;fill-rule:nonzero;stroke:none"
                     id="path913" /></g></g></g></g><g
             id="g921"
             transform="translate(701.3026,286.99)"><path
               d="m 0,0 -1.808,-10.609 c -7.595,23.75 -29.808,41.501 -56.812,41.501 h -483.852 c -27.095,0 -49.398,-17.902 -56.873,-41.832 l -1.838,11.573 c -6.118,36.348 21.881,69.44 58.711,69.44 H -58.62 C -21.519,70.073 6.57,36.528 0,0"
               style="fill:#ffffff;fill-opacity:1;fill-rule:nonzero;stroke:none"
               id="path923" /></g><g
             id="g925"
             transform="translate(464.3511,188.0069)"><path
               d="m 0,0 c 0,-34.941 -28.325,-63.267 -63.267,-63.267 -34.941,0 -63.266,28.326 -63.266,63.267 0,34.941 28.325,63.267 63.266,63.267 C -28.325,63.267 0,34.941 0,0"
               style="fill:#ffffff;fill-opacity:1;fill-rule:nonzero;stroke:none"
               id="path927" /></g><g
             id="g929"
             transform="translate(401.0683,134.244)"><path
               d="m 0,0 c -29.664,0 -53.762,24.148 -53.762,53.762 0,29.664 24.098,53.812 53.762,53.812 29.664,0 53.812,-24.148 53.812,-53.812 C 53.812,24.148 29.664,0 0,0 m 0,126.506 c -40.098,0 -72.743,-32.596 -72.743,-72.744 0,-40.098 32.645,-72.743 72.743,-72.743 40.098,0 72.743,32.645 72.743,72.743 0,40.148 -32.645,72.744 -72.743,72.744"
               style="fill:#100f0d;fill-opacity:1;fill-rule:nonzero;stroke:none"
               id="path931" /></g><g
             id="g933"
             transform="translate(154.467,41.1786)"><path
               d="m 0,0 -2.783,17.589 -36.52,231.447 c -0.447,2.633 -0.646,5.217 -0.646,7.851 v 0.049 c 0.099,10.186 3.776,20.124 10.484,28.024 0.894,1.044 1.789,2.038 2.733,2.932 0.05,0.05 0.05,0.05 0.099,0.05 8.249,8.148 19.329,12.72 31.006,12.72 h 483.861 c 10.186,0 19.875,-3.429 27.626,-9.64 l 0.05,-0.049 c 2.286,-1.839 4.372,-3.827 6.31,-6.162 6.609,-7.9 10.137,-17.689 10.286,-27.825 0.05,-2.832 -0.199,-5.714 -0.696,-8.546 L 492.159,17.589 489.128,0 489.079,-0.348 H 0.05 Z m 545.574,304.339 c -14.211,17.043 -35.13,26.831 -57.34,26.831 h -226.229 -0.1 -31.154 -0.099 H 4.373 c -22.062,0 -42.881,-9.64 -57.142,-26.484 -14.21,-16.844 -20.272,-39.005 -16.645,-60.569 L -34.98,25.937 -30.955,0.397 -30.906,0 l 3.727,-23.453 1.143,-7.354 h 540.803 l 0.894,5.118 4.075,23.9 0.348,1.789 4.124,23.9 37.613,219.223 c 3.926,21.863 -1.987,44.173 -16.247,61.216"
               style="fill:#100f0d;fill-opacity:1;fill-rule:nonzero;stroke:none"
               id="path935" /></g><g
             id="g937"
             transform="translate(381.541,204.5028)"><path
               d="m 0,0 -26.782,-11.726 v -7.603 L 0,-31.105 v 7.95 L -18.732,-15.503 0,-7.801 Z"
               style="fill:#100f0d;fill-opacity:1;fill-rule:nonzero;stroke:none"
               id="path939" /></g><g
             id="g941"
             transform="translate(409.3664,213.6452)"><path
               d="m 0,0 -24.496,-51.228 h 7.105 L 7.155,0 Z"
               style="fill:#100f0d;fill-opacity:1;fill-rule:nonzero;stroke:none"
               id="path943" /></g><g
             id="g945"
             transform="translate(420.5959,204.5028)"><path
               d="M 0,0 V -7.901 L 18.732,-15.602 0,-23.304 v -7.801 l 26.831,11.776 v 7.603 z"
               style="fill:#100f0d;fill-opacity:1;fill-rule:nonzero;stroke:none"
               id="path947" /></g><g
             id="g949"
             transform="translate(419.6259,476.2212)"><path
               d="m 0,0 c -2.079,-0.118 -4.068,-0.892 -5.797,-2.053 l -8.833,-5.93 c -2.483,-1.667 -5.727,-1.667 -8.21,0 l -8.755,5.878 c -1.844,1.237 -3.976,2.051 -6.196,2.119 -3.023,0.093 -6.081,-0.992 -2.387,-7.02 0.675,-1.101 1.536,-2.089 2.519,-2.925 1.681,-1.431 4.75,-3.941 8.206,-6.278 6.496,-4.395 14.938,-4.396 21.434,-0.001 3.453,2.335 6.519,4.842 8.202,6.274 0.988,0.84 1.853,1.833 2.531,2.94 C 6.529,-0.764 3.117,0.177 0,0"
               style="fill:#100f0d;fill-opacity:1;fill-rule:nonzero;stroke:none"
               id="path951" /></g><g
             id="g953"
             transform="translate(578.9844,501.2854)"><path
               d="m 0,0 c 0,-16.937 -14.041,-30.714 -31.285,-30.714 h -95.697 c -17.244,0 -31.285,13.777 -31.285,30.714 v 35.146 c -2.193,1.492 -4.387,2.633 -6.581,3.51 -10.268,4.081 -19.921,2.15 -26.502,-0.395 -2.852,-1.14 -5.09,-2.325 -6.582,-3.203 V 0 c 0,-16.937 -14.041,-30.714 -31.285,-30.714 h -73.464 c -16.975,27.705 -27.448,59.807 -29.821,93.442 35.887,7.763 92.145,17.461 154.301,18.842 87.297,-1.94 163.031,-20.306 186.932,-26.644 0.325,4.226 0.488,8.537 0.488,12.805 -23.331,6.208 -99.512,24.832 -187.42,26.772 -68.766,-1.516 -130.335,-13.233 -165.056,-21.24 -9.677,-2.221 -17.279,-4.17 -22.365,-5.532 0,-2.482 0.072,-4.973 0.182,-7.458 0.062,-1.536 0.168,-3.063 0.264,-4.592 0.018,-0.25 0.024,-0.505 0.043,-0.755 l 0.003,10e-4 c 1.871,-28.168 9.435,-55.28 21.742,-79.66 -4.883,3.527 -8.708,8.388 -10.836,14.071 l -8.425,8.688 c 0.817,-15.249 10.946,-28.057 24.861,-33.052 24.432,-42.172 63.633,-74.818 112.314,-88.23 15.758,-4.354 31.637,-6.424 47.273,-6.381 15.635,-0.043 31.474,2.027 47.272,6.381 4.805,1.336 9.568,2.845 14.17,4.57 -9.65,-1.595 -19.3,-2.372 -28.869,-2.328 -15.635,-0.044 -31.515,2.026 -47.272,6.38 -44.42,12.228 -80.948,40.46 -105.564,77.338 h 69.247 c 20.886,0 37.867,16.717 37.867,37.296 v 31.109 c 5.704,2.721 15.883,5.704 26.502,0.264 V 0 c 0,-20.579 16.98,-37.296 37.866,-37.296 h 95.697 c 4.476,0 8.732,0.79 12.725,2.194 L 9.17,-5.441 -2.304,3.324 Z"
               style="fill:#e7af68;fill-opacity:1;fill-rule:nonzero;stroke:none"
               id="path955" /></g><g
             id="g957"
             transform="translate(349.7867,586.323)"><path
               d="m 0,0 h -95.726 c -12.139,0 -21.981,-9.673 -21.981,-21.606 V -85.03 c 0,-11.932 9.842,-21.606 21.981,-21.606 H 0 c 12.14,0 21.981,9.674 21.981,21.606 v 63.424 C 21.981,-9.673 12.14,0 0,0"
               style="fill:#ffffff;fill-opacity:1;fill-rule:nonzero;stroke:none"
               id="path959" /></g><g
             id="g961"
             transform="translate(547.7202,586.323)"><path
               d="m 0,0 h -95.726 c -12.139,0 -21.981,-9.673 -21.981,-21.606 V -85.03 c 0,-11.932 9.842,-21.606 21.981,-21.606 H 0 c 12.14,0 21.981,9.674 21.981,21.606 v 63.424 C 21.981,-9.673 12.14,0 0,0"
               style="fill:#ffffff;fill-opacity:1;fill-rule:nonzero;stroke:none"
               id="path963" /></g><g
             id="g965"
             transform="translate(434.1443,549.4193)"><path
               d="m 0,0 -11.32,-14.436 c -0.702,0.527 -1.405,1.009 -2.107,1.448 -2.193,1.492 -4.387,2.633 -6.581,3.51 -10.268,4.081 -19.921,2.151 -26.502,-0.394 -2.852,-1.141 -5.09,-2.326 -6.582,-3.203 -1.316,-0.79 -2.018,-1.317 -2.062,-1.361 L -66.475,0 c 3.247,2.457 7.855,5.09 13.383,7.152 2.062,0.834 4.256,1.536 6.582,2.106 7.854,2.062 17.024,2.721 26.502,0.395 2.15,-0.526 4.388,-1.185 6.581,-2.062 C -8.951,5.836 -4.432,3.379 0,0"
               style="fill:#100f0d;fill-opacity:1;fill-rule:nonzero;stroke:none"
               id="path967" /></g><g
             id="g969"
             transform="translate(337.2538,404.2478)"><path
               d="M 0,0 C -4.063,4.627 -7.157,10.143 -8.952,16.756 -11.9,27.61 -11.328,39.115 -9.762,50.252 -7.584,65.742 4.48,56.601 12.935,52.037 46.282,34.038 90.347,33.049 124.96,48.082 145.558,57.027 146.694,32.541 139.299,20.154 116.31,-18.35 61.493,-31.467 21.448,-14.603 13.031,-11.058 5.596,-6.372 0,0"
               style="fill:#ffffff;fill-opacity:1;fill-rule:nonzero;stroke:none"
               id="path971" /></g><g
             id="g973"
             transform="translate(471.526,437.2907)"><path
               d="m 0,0 c -7.106,-5.913 -17.938,-11.13 -25.937,-14.509 -0.05,0 -0.05,-0.05 -0.1,-0.05 -5.962,-2.534 -10.285,-4.024 -10.285,-4.024 0,0 14.409,-0.249 28.223,3.577 2.782,0.795 4.969,-2.484 3.13,-4.67 -1.043,-1.242 -2.137,-2.485 -3.23,-3.628 -19.129,-20.123 -49.936,-30.309 -79.202,-26.732 h -0.05 c -8.149,0.944 -16.149,3.031 -23.8,6.261 -7.653,3.23 -13.665,7.105 -18.236,11.875 l -0.049,0.05 c -0.299,0.249 -0.547,0.547 -0.796,0.795 -1.639,2.087 -2.037,3.876 -2.086,3.975 -0.1,1.242 0.049,2.733 1.043,3.776 0.944,1.044 2.683,1.69 5.714,1.392 18.633,-2.882 39.254,0.596 39.254,0.596 -9.69,0.398 -20.373,3.279 -29.962,6.757 -0.05,0 -0.1,0.05 -0.149,0.05 -5.168,1.888 -10.037,3.876 -14.261,5.814 -6.658,3.08 -10.633,9.937 -10.086,17.291 0.198,2.534 0.546,5.217 0.894,8.05 0.447,3.13 1.342,4.571 1.988,4.919 0.248,0.099 0.596,0.198 0.894,0.198 2.584,0 7.503,-2.832 10.583,-4.621 1.093,-0.646 2.187,-1.192 3.23,-1.788 C -89.389,-2.931 -44.024,-4.521 -7.652,11.279 -2.733,13.366 0.745,13.366 2.733,11.18 5.366,8.199 3.925,3.776 1.441,1.292 0.993,0.845 0.497,0.447 0,0 M 8.944,16.646 C 6.36,19.577 0.298,23.801 -10.981,18.881 -45.117,4.025 -87.6,5.515 -119.4,22.658 c -0.944,0.497 -1.938,1.093 -2.981,1.689 -1.342,0.795 -2.783,1.59 -4.224,2.335 -0.05,0 -0.05,0.05 -0.099,0.05 -5.019,2.634 -10.236,4.571 -14.907,2.286 -1.143,-0.547 -2.136,-1.292 -2.931,-2.286 l -0.05,-0.05 c -1.839,-2.037 -3.031,-5.018 -3.528,-8.894 -1.838,-13.068 -1.838,-23.204 0.199,-32.297 v -0.05 c 0.199,-0.993 0.447,-1.888 0.696,-2.832 0.298,-1.143 0.646,-2.335 1.043,-3.428 0.298,-0.845 0.646,-1.689 0.994,-2.485 1.888,-4.571 4.521,-8.695 7.801,-12.422 5.664,-6.459 13.117,-11.577 22.956,-15.701 11.03,-4.671 22.906,-6.956 34.831,-7.354 v -0.149 c 4.521,-0.05 13.118,0.149 21.167,1.342 v 0.099 c 1.938,0.298 3.826,0.696 5.714,1.093 h 0.05 c 22.011,4.82 42.234,16.348 55.452,33.092 2.136,2.634 4.024,5.416 5.763,8.298 0.1,0.149 0.199,0.249 0.249,0.447 v 0.05 c 5.366,9.242 6.608,23.751 0.149,31.155"
               style="fill:#100f0d;fill-opacity:1;fill-rule:nonzero;stroke:none"
               id="path975" /></g><g
             id="g977"
             transform="translate(218.766,456.692)"><path
               d="m 0,0 c -11.562,0.975 -21.717,5.481 -30.288,13.461 -28.288,26.336 -28.079,82.192 -28.056,84.558 l 0.005,0.456 0.046,0.455 c 1.355,13.012 6.313,21 14.738,23.745 15.032,4.889 31.553,-11.751 36.257,-16.971 l -14.391,-12.99 c -2.79,3.078 -6.277,6.085 -9.372,8.249 -3.099,2.165 -7.441,0.319 -7.883,-3.436 l -0.014,-0.122 c 0.036,-4.899 0.964,-50.317 21.902,-69.777 6.904,-6.416 15.241,-9.125 25.49,-8.296 L 10.002,0.012 C 6.562,-0.268 3.226,-0.272 0,0"
               style="fill:#100f0d;fill-opacity:1;fill-rule:nonzero;stroke:none"
               id="path979" /></g><g
             id="g981"
             transform="translate(581.4645,456.692)"><path
               d="m 0,0 c 11.562,0.975 21.717,5.481 30.288,13.461 28.288,26.336 28.079,82.192 28.056,84.558 l -0.005,0.456 -0.046,0.455 c -1.355,13.012 -6.313,21 -14.738,23.745 -15.032,4.889 -31.553,-11.751 -36.257,-16.971 l 14.391,-12.99 c 2.79,3.078 6.277,6.085 9.372,8.249 3.099,2.165 7.441,0.319 7.882,-3.436 l 0.015,-0.122 C 38.922,92.506 37.994,47.088 17.056,27.628 10.152,21.212 1.815,18.503 -8.434,19.332 L -10.002,0.012 C -6.562,-0.268 -3.226,-0.272 0,0"
               style="fill:#100f0d;fill-opacity:1;fill-rule:nonzero;stroke:none"
               id="path983" /></g><g
             id="g985"
             transform="translate(192.9423,558.866)"><path
               d="M 0,0 31.345,-31.402 46.376,-16.399 15.031,15.003 Z"
               style="fill:#100f0d;fill-opacity:1;fill-rule:nonzero;stroke:none"
               id="path987" /></g><g
             id="g989"
             transform="translate(593.2944,573.869)"><path
               d="m 0,0 -31.344,-31.402 15.032,-15.003 31.343,31.402 z"
               style="fill:#100f0d;fill-opacity:1;fill-rule:nonzero;stroke:none"
               id="path991" /></g><g
             id="g993"
             transform="translate(232.0802,564.7171)"><path
               d="m 0,0 -6.577,12.477 c 0,0 -7.384,6.161 -9.373,5.318 -1.988,-0.843 -7.929,-5.318 -7.929,-5.318 0,0 -5.029,-4.748 -2.286,-12.477 2.742,-7.729 6.206,-14.734 8.587,-16.442 2.382,-1.708 14.266,-8.838 14.266,-8.838 z"
               style="fill:#100f0d;fill-opacity:1;fill-rule:nonzero;stroke:none"
               id="path995" /></g><g
             id="g997"
             transform="translate(593.2944,573.869)"><path
               d="M 0,0 -9.802,8.643 -14.31,4.322 c 0,0 -4.393,1.562 -4.445,-5.707 -0.053,-7.269 -0.927,-11.014 0,-13.745 0.927,-2.731 5.893,-6.55 8.953,-9.361 3.061,-2.811 11.31,0.58 11.31,0.58 z"
               style="fill:#100f0d;fill-opacity:1;fill-rule:nonzero;stroke:none"
               id="path999" /></g><g
             id="g1001"
             transform="translate(362.461,564.8245)"><path
               d="m 0,0 v -63.452 c 0,-6.857 -5.665,-12.422 -12.72,-12.422 h -95.699 c -0.447,0 -0.944,0 -1.441,0.05 -6.31,0.696 -11.279,5.963 -11.279,12.372 V 0 c 0,6.907 5.714,12.472 12.72,12.472 H -12.72 C -5.665,12.472 0,6.907 0,0"
               style="fill:#c1e9d8;fill-opacity:1;fill-rule:nonzero;stroke:none"
               id="path1003" /></g><g
             id="g1005"><g
               id="g1007" /><g
               id="g1023"><g
                 clip-path="url(#clipPath1011)"
                 opacity="0.800003"
                 id="g1021"><g
                   transform="translate(265.5296,480.4937)"
                   id="g1015"><path
                     d="m 0,0 -31.097,-4.253 68.742,102.389 31.053,4.189 z"
                     style="fill:#ffffff;fill-opacity:1;fill-rule:nonzero;stroke:none"
                     id="path1013" /></g><g
                   transform="translate(295.5875,482.0815)"
                   id="g1019"><path
                     d="m 0,0 -20.813,1.43 64.335,95.826 23.351,3.338 z"
                     style="fill:#ffffff;fill-opacity:1;fill-rule:nonzero;stroke:none"
                     id="path1017" /></g></g></g></g><g
             id="g1025"
             transform="translate(560.4175,564.8245)"><path
               d="m 0,0 v -63.452 c 0,-6.857 -5.664,-12.422 -12.72,-12.422 h -95.699 c -0.447,0 -0.944,0 -1.441,0.05 -6.31,0.696 -11.279,5.963 -11.279,12.372 V 0 c 0,6.907 5.714,12.472 12.72,12.472 H -12.72 C -5.664,12.472 0,6.907 0,0"
               style="fill:#c1e9d8;fill-opacity:1;fill-rule:nonzero;stroke:none"
               id="path1027" /></g><g
             id="g1029"><g
               id="g1031" /><g
               id="g1047"><g
                 clip-path="url(#clipPath1035)"
                 opacity="0.800003"
                 id="g1045"><g
                   transform="translate(463.4862,480.4937)"
                   id="g1039"><path
                     d="m 0,0 -31.097,-4.253 68.742,102.389 31.053,4.189 z"
                     style="fill:#ffffff;fill-opacity:1;fill-rule:nonzero;stroke:none"
                     id="path1037" /></g><g
                   transform="translate(493.544,482.0815)"
                   id="g1043"><path
                     d="m 0,0 -20.813,1.43 64.335,95.826 23.351,3.338 z"
                     style="fill:#ffffff;fill-opacity:1;fill-rule:nonzero;stroke:none"
                     id="path1041" /></g></g></g></g><g
             id="g1049"
             transform="translate(254.0419,488.8668)"><path
               d="M 0,0 C -0.447,0 -0.944,0 -1.441,0.05 -7.751,0.745 -12.72,6.012 -12.72,12.422 v 63.452 c 0,6.906 5.714,12.471 12.72,12.471 h 95.699 c 7.056,0 12.72,-5.565 12.72,-12.471 V 12.422 C 108.419,5.565 102.755,0 95.699,0 Z m 121.686,92.966 c -3.727,5.466 -9.242,9.739 -15.751,11.876 h -0.05 -0.05 c -3.18,1.142 -6.559,1.739 -10.136,1.739 H 0 c -6.907,0 -13.366,-2.236 -18.534,-6.013 -3.428,-2.484 -6.36,-5.664 -8.496,-9.291 -0.596,-0.944 -1.094,-1.888 -1.541,-2.882 -0.795,-1.789 -1.441,-3.627 -1.838,-5.565 v -0.05 c -0.596,-2.236 -0.845,-4.522 -0.845,-6.906 v -56.545 -0.1 -6.807 c 0,-3.776 0.696,-7.354 1.988,-10.633 0.298,-0.745 0.596,-1.441 0.894,-2.137 0.348,-0.745 0.696,-1.441 1.093,-2.087 0.696,-1.292 1.491,-2.484 2.385,-3.627 0.448,-0.596 0.944,-1.143 1.441,-1.739 0.497,-0.596 1.044,-1.093 1.59,-1.64 0.249,-0.248 0.497,-0.497 0.746,-0.695 0.298,-0.249 0.596,-0.497 0.894,-0.746 0.546,-0.496 1.093,-0.944 1.689,-1.341 l 0.05,-0.05 c 0,0 0,-0.05 0.05,-0.05 5.167,-3.726 11.527,-5.962 18.434,-5.962 h 95.699 c 8.596,0 16.447,3.428 22.111,8.993 0.696,0.696 1.391,1.441 2.037,2.187 4.472,5.316 7.155,12.074 7.155,19.527 v 63.452 c 0,6.31 -1.938,12.173 -5.316,17.092"
               style="fill:#100f0d;fill-opacity:1;fill-rule:nonzero;stroke:none"
               id="path1051" /></g><g
             id="g1053"
             transform="translate(439.2783,501.2888)"><path
               d="m 0,0 v 63.452 c 0,6.906 5.714,12.471 12.72,12.471 h 95.699 c 7.006,0 12.72,-5.565 12.72,-12.471 V 0 c 0,-6.857 -5.714,-12.422 -12.72,-12.422 H 12.72 C 5.714,-12.422 0,-6.857 0,0 m 138.928,70.259 v 0.05 c -0.497,2.086 -1.193,4.074 -2.137,5.962 v 0.05 c -0.398,0.894 -0.845,1.739 -1.342,2.633 -0.049,0 -0.049,0.05 -0.049,0.05 -2.286,3.776 -5.366,7.056 -9.044,9.59 -5.068,3.527 -11.279,5.565 -17.937,5.565 H 12.72 C 9.192,94.159 5.764,93.562 2.584,92.469 2.534,92.42 2.534,92.42 2.484,92.42 H 2.435 C -4.025,90.233 -9.49,86.01 -13.267,80.594 -16.596,75.675 -18.583,69.811 -18.583,63.452 V 0 c 0,-16.943 14.062,-30.707 31.303,-30.707 h 95.699 c 0.944,0 1.839,0.05 2.783,0.149 0.347,0 0.745,0.05 1.143,0.099 0.795,0.1 1.589,0.199 2.335,0.398 1.043,0.198 2.037,0.447 3.031,0.745 0.894,0.249 1.739,0.547 2.633,0.944 0.149,0.05 0.298,0.1 0.447,0.199 0.845,0.348 1.69,0.745 2.534,1.192 0.547,0.249 1.044,0.547 1.541,0.895 0.596,0.348 1.143,0.696 1.689,1.093 h 0.05 c 0.199,0.149 0.447,0.298 0.646,0.497 0.497,0.348 0.994,0.696 1.441,1.192 0.497,0.348 0.944,0.746 1.391,1.193 0.398,0.348 0.795,0.696 1.143,1.143 0.398,0.348 0.745,0.745 1.093,1.192 0.745,0.845 1.391,1.69 2.037,2.584 0.646,0.895 1.243,1.888 1.739,2.882 0.448,0.844 0.895,1.689 1.243,2.584 0.298,0.695 0.596,1.391 0.844,2.136 0.596,1.888 1.044,3.876 1.292,5.913 0.05,0.348 0.1,0.696 0.149,1.093 0.05,0.845 0.099,1.69 0.099,2.584 v 63.452 c 0,2.335 -0.248,4.621 -0.794,6.807"
               style="fill:#100f0d;fill-opacity:1;fill-rule:nonzero;stroke:none"
               id="path1055" /></g><g
             id="g1057"
             transform="translate(393.2058,662.5175)"><path
               d="m 0,0 c -4.714,-1.449 -9.359,-3.117 -14.133,-4.443 -1.37,-0.38 -2.748,-0.732 -4.136,-1.041 -3.044,-0.679 -6.133,-1.171 -9.248,-1.355 -3.189,-0.188 -6.258,0.464 -9.398,0.464 9.59,0.447 17.797,8.371 17.797,8.371 -30.26,5.963 -44.52,21.416 -44.52,21.416 14.26,-6.758 29.813,-3.429 29.813,-3.429 l -6.857,14.111 16.098,-4.422 c -2.285,1.143 -4.67,2.435 -6.906,3.727 -5.267,3.08 -10.037,6.112 -12.174,7.304 -0.546,0.248 -1.093,0.497 -1.639,0.845 -0.994,0.497 -1.938,1.142 -2.882,1.838 -0.348,0.199 -0.746,0.497 -1.044,0.746 -0.845,0.596 -1.242,0.944 -1.242,0.944 0.298,-0.994 0.596,-1.988 0.894,-2.932 1.789,-5.665 3.628,-9.888 3.677,-9.987 l 3.031,-6.907 -7.503,0.099 c -4.422,-0.049 -8.596,0.944 -12.422,2.584 -7.552,3.131 -13.862,8.696 -18.732,14.261 2.634,-9.838 7.553,-17.341 12.82,-22.857 7.204,-7.751 15.105,-11.825 18.434,-13.267 0.894,-0.447 1.49,-0.646 1.639,-0.695 l 15.056,-5.466 -11.677,-2.931 -3.875,-0.944 c -2.087,-0.497 -4.323,-0.944 -6.609,-1.292 -2.435,-0.398 -4.869,-0.746 -7.155,-0.994 2.385,-1.54 5.018,-2.633 7.801,-3.528 0.149,0 0.298,-0.049 0.497,-0.099 4.621,-1.094 9.341,-1.888 14.111,-2.385 1.709,-0.162 3.432,-0.272 5.159,-0.344 l 6.874,-4.874 39.643,2.071 66.085,10.799 C 63.297,1.524 48.039,4.397 32.802,4.449 24.798,4.477 16.769,3.859 8.909,2.311 5.881,1.715 2.927,0.9 0,0"
               style="fill:#92431c;fill-opacity:1;fill-rule:nonzero;stroke:none"
               id="path1059" /></g><g
             id="g1061"
             transform="translate(479.5257,621.5336)"><path
               d="m 0,0 c 0,-3.18 -0.248,-6.36 -0.596,-9.491 -23.95,2.932 -50.185,5.168 -77.613,5.764 v 0.05 c -0.199,0 -0.348,-0.05 -0.547,-0.05 -0.148,0 -0.298,0.05 -0.546,0.05 v -0.05 c -26.881,-0.596 -52.57,-2.732 -76.072,-5.565 -0.348,3.081 -0.597,6.162 -0.597,9.292 0,1.192 0.05,2.435 0.1,3.627 0.199,3.478 0.596,6.857 1.192,10.186 11.776,2.137 82.184,13.764 153.337,0.348 0.646,-3.677 1.143,-7.404 1.243,-11.18 C 0,1.988 0,0.994 0,0"
               style="fill:#5e5f61;fill-opacity:1;fill-rule:nonzero;stroke:none"
               id="path1063" /></g><g
             id="g1065"><g
               id="g1067" /><g
               id="g1079"><g
                 clip-path="url(#clipPath1071)"
                 opacity="0.5"
                 id="g1077"><g
                   transform="translate(479.4262,618.6516)"
                   id="g1075"><path
                     d="m 0,0 c -0.05,-2.236 -0.248,-4.422 -0.497,-6.609 -23.949,2.932 -50.185,5.168 -77.612,5.764 v 0.05 c -0.199,0 -0.348,-0.05 -0.547,-0.05 -0.149,0 -0.298,0.05 -0.547,0.05 v -0.05 c -26.881,-0.596 -52.569,-2.732 -76.072,-5.565 -0.348,3.081 -0.596,6.162 -0.596,9.292 0,1.192 0.05,2.435 0.099,3.627 0.199,3.478 0.597,6.857 1.193,10.186 1.192,0.199 2.931,0.547 5.267,0.895 -0.199,-1.69 -0.348,-3.379 -0.447,-5.118 -0.05,-1.193 -0.1,-2.435 -0.1,-3.627 0,-3.131 0.249,-6.211 0.597,-9.292 23.502,2.832 49.19,4.969 76.072,5.565 v 0.05 c 0.248,0 0.397,-0.05 0.546,-0.05 0.199,0 0.348,0.05 0.547,0.05 V 5.118 C -46.756,4.571 -22.459,2.634 0,0"
                     style="fill:#5e5f61;fill-opacity:1;fill-rule:nonzero;stroke:none"
                     id="path1073" /></g></g></g></g><g
             id="g1081"
             transform="translate(470.4825,657.9052)"><path
               d="m 0,0 c -1.739,0.248 -3.478,0.497 -5.217,0.745 -1.093,0.199 -2.236,0.348 -3.33,0.497 -2.434,0.298 -4.819,0.596 -7.204,0.845 -1.739,0.198 -3.528,0.397 -5.317,0.546 -1.441,0.199 -2.882,0.298 -4.273,0.448 -0.298,0 -0.596,0.049 -0.894,0.049 h -0.149 c -14.758,1.143 -29.714,0.944 -44.123,-2.087 -0.845,-0.198 -1.739,-0.347 -2.584,-0.546 -22.26,-4.423 -44.316,-2.61 -44.316,-2.61 9.59,0.447 21.012,8.722 21.012,8.722 -30.26,5.962 -44.52,21.415 -44.52,21.415 14.26,-6.758 29.813,-3.428 29.813,-3.428 l -6.857,14.111 16.099,-4.423 c 1.441,0.646 2.882,1.292 4.372,1.839 0.795,0.348 1.64,0.646 2.485,0.944 1.043,0.398 2.086,0.745 3.13,1.044 0.348,0.149 0.745,0.248 1.143,0.347 0.795,0.249 1.54,0.448 2.335,0.646 1.044,0.298 2.137,0.547 3.18,0.745 0.298,0.1 0.596,0.15 0.845,0.199 1.441,0.299 2.832,0.547 4.273,0.746 0.547,0.099 1.043,0.149 1.59,0.199 1.341,0.198 2.683,0.298 4.075,0.397 0.099,0 0.198,0.05 0.298,0 1.689,0.149 3.428,0.199 5.167,0.199 C -39.055,41.589 -13.118,24.695 0,0"
               style="fill:#92431c;fill-opacity:1;fill-rule:nonzero;stroke:none"
               id="path1083" /></g><g
             id="g1085"
             transform="translate(356.6312,633.0045)"><path
               d="m 0,0 c -3.297,-0.027 -6.085,-2.615 -6.136,-5.947 -0.051,-3.331 2.616,-6.082 5.947,-6.133 h 0.094 c 3.29,0 5.991,2.647 6.042,5.947 C 5.997,-2.802 3.331,-0.051 0,0"
               style="fill:#100f0d;fill-opacity:1;fill-rule:nonzero;stroke:none"
               id="path1087" /></g><g
             id="g1089"
             transform="translate(385.0246,635.848)"><path
               d="m 0,0 c -3.331,-0.058 -6.085,-2.615 -6.136,-5.947 -0.051,-3.331 2.616,-6.082 5.947,-6.133 h 0.094 c 3.288,0 5.988,2.647 6.039,5.947 0.024,1.613 -0.58,3.139 -1.701,4.296 C 3.12,-0.677 1.613,-0.024 0,0"
               style="fill:#100f0d;fill-opacity:1;fill-rule:nonzero;stroke:none"
               id="path1091" /></g><g
             id="g1093"
             transform="translate(412.188,635.848)"><path
               d="m 0,0 c -1.655,-0.034 -3.142,-0.58 -4.297,-1.703 -1.159,-1.121 -1.812,-2.63 -1.836,-4.244 -0.051,-3.331 2.615,-6.082 5.946,-6.133 h 0.095 c 3.287,0 5.988,2.647 6.039,5.947 C 5.997,-2.802 3.331,-0.051 0,0"
               style="fill:#100f0d;fill-opacity:1;fill-rule:nonzero;stroke:none"
               id="path1095" /></g><g
             id="g1097"
             transform="translate(443.5074,634.271)"><path
               d="m 0,0 h -0.095 c -3.287,0 -5.987,-2.647 -6.038,-5.947 -0.025,-1.613 0.58,-3.139 1.703,-4.296 1.121,-1.16 2.63,-1.813 4.243,-1.837 h 0.097 c 1.577,0 3.067,0.602 4.2,1.703 1.16,1.121 1.812,2.63 1.837,4.244 C 5.997,-2.802 3.331,-0.051 0,0"
               style="fill:#100f0d;fill-opacity:1;fill-rule:nonzero;stroke:none"
               id="path1099" /></g><g
             id="g1101"><g
               id="g1103" /><g
               id="g1115"><g
                 clip-path="url(#clipPath1107)"
                 opacity="0.5"
                 id="g1113"><g
                   transform="translate(391.949,662.7242)"
                   id="g1111"><path
                     d="m 0,0 c -3.373,-1.145 -6.705,-2.437 -10.106,-3.651 -5.191,-1.852 -10.644,-3.069 -16.154,-3.394 -3.189,-0.189 -6.258,0.463 -9.398,0.463 9.59,0.448 17.797,8.372 17.797,8.372 -30.26,5.962 -44.52,21.415 -44.52,21.415 14.26,-6.758 29.812,-3.428 29.812,-3.428 l -6.857,14.111 16.099,-4.422 c -2.286,1.143 -4.67,2.434 -6.906,3.726 -5.267,3.081 -10.038,6.112 -12.174,7.304 -0.547,0.249 -1.093,0.497 -1.64,0.845 -0.993,0.497 -1.937,1.143 -2.882,1.838 -0.347,0.199 -0.745,0.498 -1.043,0.746 -0.845,0.596 -1.242,0.944 -1.242,0.944 0.298,-0.994 0.596,-1.988 0.894,-2.932 1.789,-5.664 3.627,-9.888 3.677,-9.987 l 3.031,-6.906 -7.503,0.099 c -4.422,-0.05 -8.596,0.944 -12.422,2.584 -7.552,3.13 -13.863,8.695 -18.732,14.26 2.633,-9.838 7.552,-17.341 12.819,-22.856 7.205,-7.752 15.105,-11.826 18.435,-13.267 0.894,-0.447 1.49,-0.646 1.639,-0.696 l 15.056,-5.465 -11.677,-2.932 -3.876,-0.944 c -2.086,-0.497 -4.322,-0.944 -6.608,-1.292 -2.435,-0.398 -4.87,-0.745 -7.155,-0.994 2.385,-1.54 5.018,-2.633 7.801,-3.528 0.149,0 0.298,-0.049 0.497,-0.099 4.621,-1.093 9.341,-1.888 14.111,-2.385 1.708,-0.162 3.432,-0.272 5.159,-0.343 l 6.874,-4.874 39.643,2.07 66.084,10.799 C 64.553,1.317 49.296,4.191 34.059,4.243 26.36,4.269 18.587,4.123 10.972,2.879 7.184,2.26 3.569,1.212 0,0"
                     style="fill:#92431c;fill-opacity:1;fill-rule:nonzero;stroke:none"
                     id="path1109" /></g></g></g></g><g
             id="g1117"
             transform="translate(308.6488,612.043)"><path
               d="M 0,0 V 12.404 C -6.027,11.559 -11.926,10.681 -17.589,9.789 -37.664,6.509 -55.651,2.783 -70.805,-0.695 -40.505,140.026 66.322,154.404 66.322,154.404 l -12.9,6.178 c 0.047,0.019 0.094,0.041 0.142,0.059 14.011,5.515 28.62,9.093 43.576,10.633 -5.416,0.597 -10.832,0.895 -16.347,0.895 h -0.05 -0.1 c -72.544,0 -139.772,-49.291 -170.876,-126.804 -0.05,-0.049 -0.1,-0.099 -0.1,-0.149 -4.82,-12.074 -8.794,-24.844 -11.776,-38.21 -1.739,-7.851 -3.08,-15.751 -4.074,-23.651 -0.348,-2.634 -0.596,-5.217 -0.845,-7.801 8.248,2.335 19.726,5.465 33.788,8.795 h 0.05 c 20.138,4.744 45.628,9.887 74.464,13.838 z"
               style="fill:#ffffff;fill-opacity:1;fill-rule:nonzero;stroke:none"
               id="path1119" /></g><g
             id="g1121"
             transform="translate(593.8344,633.0045)"><path
               d="m 0,0 -31.883,63.583 -44.203,44.843 -35.461,14.979 -38.873,18.809 -39.017,-6.924 c 0,0 125.817,-21.287 157.054,-159.478 -16.048,3.964 -36.257,8.392 -59.367,12.27 -7.255,1.193 -14.807,2.385 -22.658,3.428 0.099,-0.993 0.099,-1.987 0.099,-2.981 0,-3.18 -0.248,-6.36 -0.596,-9.49 -23.949,2.931 -50.185,5.167 -77.612,5.763 v 0.05 c -0.199,0 -0.348,-0.05 -0.547,-0.05 -0.149,0 -0.298,0.05 -0.547,0.05 v -0.05 c -0.816,-0.018 -1.606,-0.067 -2.42,-0.087 l 0.032,-1.036 c 0.318,0.007 0.63,0.023 0.947,0.03 v 0.05 c 0.199,0 0.348,-0.05 0.547,-0.05 0.199,0 0.348,0.05 0.497,0.05 v -0.05 c 84.221,-1.987 157.312,-20.471 187.224,-29.117 -0.099,1.392 -0.249,2.733 -0.447,4.124 -0.078,0.796 -0.222,1.599 -0.31,2.398 L 0,-41.383 Z"
               style="fill:#b21d25;fill-opacity:1;fill-rule:nonzero;stroke:none"
               id="path1123" /></g><g
             id="g1125"
             transform="translate(588.1932,568.765)"><path
               d="M 0,0 C 0,-0.894 0,-1.838 -0.05,-2.733 V -3.18 c 0,-0.248 0,-0.447 -0.049,-0.646 0,-0.398 0,-0.745 -0.05,-1.093 v -0.795 c 0,-0.646 0,-1.242 -0.05,-1.888 0,-0.497 0,-1.044 -0.099,-1.541 0.05,-0.397 0,-0.745 -0.05,-1.142 0,-0.348 0,-0.646 -0.05,-0.994 0,-0.447 -0.049,-0.845 -0.099,-1.242 v -0.249 c -0.049,-1.59 -0.199,-3.23 -0.348,-4.77 v -0.05 c 0,-0.149 -0.049,-0.298 -0.049,-0.447 -0.05,-0.397 -0.1,-0.795 -0.15,-1.242 0,-0.398 -0.049,-0.795 -0.099,-1.192 v -0.05 c 0,-0.149 -0.049,-0.248 -0.049,-0.398 -0.15,-1.54 -0.299,-3.08 -0.547,-4.571 -0.05,-0.596 -0.149,-1.143 -0.249,-1.739 -0.049,-0.497 -0.099,-0.944 -0.198,-1.441 -0.149,-1.391 -0.398,-2.783 -0.596,-4.174 -0.1,-0.397 -0.15,-0.745 -0.199,-1.093 0,-0.099 -0.05,-0.149 -0.05,-0.199 -0.05,-0.347 -0.099,-0.645 -0.199,-0.944 -0.149,-0.993 -0.298,-1.938 -0.497,-2.931 -0.149,-0.646 -0.248,-1.342 -0.397,-1.988 -0.199,-0.944 -0.447,-1.938 -0.646,-2.882 -0.099,-0.646 -0.248,-1.242 -0.398,-1.888 -0.248,-1.093 -0.496,-2.186 -0.795,-3.279 -0.049,-0.348 -0.149,-0.696 -0.248,-1.044 -0.298,-1.441 -0.696,-2.882 -1.143,-4.322 -0.298,-1.243 -0.646,-2.485 -1.043,-3.727 -0.1,-0.447 -0.249,-0.894 -0.348,-1.342 -0.149,-0.447 -0.298,-0.894 -0.447,-1.292 0,-0.149 0,-0.248 -0.1,-0.348 -0.447,-1.54 -0.944,-3.08 -1.49,-4.62 0,-0.1 -0.05,-0.249 -0.1,-0.348 -0.049,-0.149 -0.099,-0.348 -0.149,-0.547 -0.099,-0.198 -0.149,-0.397 -0.248,-0.546 -0.348,-1.143 -0.745,-2.336 -1.193,-3.479 -0.546,-1.54 -1.142,-3.08 -1.739,-4.571 -0.745,-1.888 -1.491,-3.776 -2.236,-5.615 -0.944,-2.136 -1.888,-4.322 -2.882,-6.459 -0.099,-0.199 -0.149,-0.348 -0.248,-0.546 -0.1,-0.199 -0.199,-0.448 -0.298,-0.646 -0.448,-0.944 -0.895,-1.839 -1.392,-2.733 -0.148,-0.348 -0.298,-0.646 -0.447,-0.994 -0.199,-0.398 -0.397,-0.795 -0.596,-1.193 v -0.049 h -0.05 c -0.397,-0.845 -0.844,-1.69 -1.291,-2.534 -1.044,-1.938 -2.087,-3.876 -3.181,-5.814 l -0.993,-1.739 v -0.05 c -0.05,0 -0.05,-0.049 -0.05,-0.049 -0.05,-0.1 -0.099,-0.249 -0.199,-0.348 -1.739,-3.13 -3.627,-6.162 -5.664,-9.143 -1.044,-1.59 -2.087,-3.13 -3.18,-4.67 -0.795,-1.193 -1.69,-2.385 -2.534,-3.578 -1.69,-2.385 -3.478,-4.72 -5.367,-7.006 -1.838,-2.286 -3.776,-4.521 -5.714,-6.757 -1.242,-1.442 -2.534,-2.882 -3.826,-4.273 l -3.726,-3.876 c -1.242,-1.242 -2.485,-2.485 -3.777,-3.677 h -0.049 l -0.05,-0.05 c -0.646,-0.646 -1.341,-1.242 -1.987,-1.888 -2.435,-2.285 -4.87,-4.522 -7.354,-6.609 h -0.05 c -0.099,-0.099 -0.248,-0.198 -0.348,-0.248 l -1.043,-0.894 c -0.348,-0.298 -0.696,-0.547 -1.044,-0.795 -0.596,-0.497 -1.192,-0.994 -1.788,-1.491 -1.59,-1.292 -3.23,-2.534 -4.87,-3.727 -1.192,-0.894 -2.434,-1.739 -3.677,-2.583 -1.739,-1.242 -3.528,-2.485 -5.366,-3.628 -1.54,-0.993 -3.13,-2.037 -4.72,-2.981 -1.441,-0.894 -2.882,-1.739 -4.323,-2.534 -1.441,-0.845 -2.932,-1.639 -4.373,-2.435 -1.49,-0.795 -2.981,-1.54 -4.472,-2.285 -1.49,-0.795 -3.031,-1.491 -4.521,-2.187 -1.541,-0.745 -3.081,-1.441 -4.621,-2.086 -1.541,-0.646 -3.131,-1.292 -4.671,-1.938 l -4.77,-1.789 c -0.099,-0.05 -0.149,-0.05 -0.248,-0.099 -1.988,-0.746 -4.075,-1.491 -6.112,-2.137 -0.05,0 -0.099,-0.05 -0.099,-0.05 -0.149,-0.049 -0.299,-0.099 -0.447,-0.099 -0.05,-0.05 -0.1,-0.05 -0.1,-0.05 -1.192,-0.397 -2.385,-0.745 -3.577,-1.093 -1.193,-0.397 -2.386,-0.695 -3.578,-1.043 -2.633,-0.746 -5.267,-1.392 -7.901,-1.988 -2.086,-0.497 -4.123,-0.944 -6.211,-1.292 -0.148,-0.049 -0.298,-0.099 -0.447,-0.099 -0.745,-0.149 -1.44,-0.298 -2.136,-0.398 -2.882,-0.496 -5.764,-0.944 -8.596,-1.242 -2.087,-0.298 -4.174,-0.497 -6.261,-0.696 h -0.049 -0.1 c -1.292,-0.148 -2.584,-0.248 -3.826,-0.298 -0.596,-0.049 -1.143,-0.099 -1.689,-0.099 -1.094,-0.099 -2.186,-0.149 -3.28,-0.199 -2.285,-0.049 -4.521,-0.099 -6.807,-0.099 -2.285,0 -4.521,0.05 -6.807,0.099 -1.043,0.05 -2.087,0.1 -3.131,0.199 -0.596,0 -1.192,0.05 -1.788,0.099 -1.243,0.05 -2.534,0.15 -3.826,0.298 h -0.1 -0.248 c -2.137,0.199 -4.273,0.448 -6.36,0.696 -2.783,0.348 -5.515,0.746 -8.298,1.242 -0.696,0.1 -1.441,0.249 -2.136,0.398 -0.15,0 -0.299,0.05 -0.448,0.099 -2.037,0.348 -4.124,0.795 -6.211,1.292 -2.633,0.596 -5.267,1.242 -7.9,1.988 -2.186,0.596 -4.373,1.242 -6.509,1.938 -0.398,0.099 -0.795,0.248 -1.193,0.347 -0.348,0.1 -0.745,0.249 -1.093,0.348 -0.894,0.298 -1.789,0.646 -2.683,0.944 -0.895,0.249 -1.789,0.596 -2.683,0.944 -0.348,0.149 -0.696,0.249 -1.044,0.398 -0.347,0.149 -0.695,0.248 -1.043,0.397 -0.298,0.1 -0.646,0.249 -0.944,0.398 -1.64,0.596 -3.28,1.242 -4.919,1.938 -0.348,0.149 -0.646,0.298 -0.994,0.447 -0.894,0.397 -1.838,0.795 -2.733,1.192 -0.944,0.398 -1.838,0.845 -2.733,1.292 -1.093,0.447 -2.136,0.994 -3.229,1.491 -0.05,0.05 -0.15,0.05 -0.199,0.099 -1.143,0.547 -2.236,1.143 -3.379,1.739 l -1.341,0.646 -0.448,0.249 c -1.838,0.993 -3.677,2.037 -5.515,3.13 -0.447,0.248 -0.944,0.497 -1.391,0.745 -0.249,0.149 -0.447,0.299 -0.646,0.398 -0.497,0.298 -0.944,0.596 -1.392,0.894 -1.341,0.795 -2.683,1.64 -4.024,2.485 -0.1,0.049 -0.249,0.149 -0.348,0.198 -0.795,0.547 -1.59,1.044 -2.385,1.59 -0.447,0.348 -0.944,0.646 -1.391,0.994 -0.398,0.249 -0.795,0.447 -1.143,0.745 -0.795,0.497 -1.54,1.044 -2.336,1.64 -0.099,0.05 -0.149,0.149 -0.248,0.199 -0.199,0.149 -0.447,0.298 -0.646,0.447 -0.845,0.547 -1.639,1.143 -2.435,1.789 0,0 -0.049,0 -0.049,0.05 -0.199,0.148 -0.348,0.248 -0.547,0.447 -0.596,0.397 -1.192,0.894 -1.789,1.341 -0.596,0.448 -1.192,0.944 -1.788,1.441 -0.199,0.149 -0.448,0.299 -0.646,0.497 -0.199,0.149 -0.398,0.298 -0.596,0.448 -0.696,0.546 -1.342,1.093 -1.988,1.639 h -0.05 c -0.348,0.348 -0.696,0.596 -1.043,0.894 -0.1,0.05 -0.149,0.15 -0.249,0.249 -0.695,0.547 -1.341,1.143 -1.987,1.689 -0.149,0.149 -0.248,0.298 -0.398,0.398 -0.099,0.099 -0.198,0.149 -0.298,0.248 -0.447,0.398 -0.894,0.746 -1.292,1.143 -0.497,0.447 -0.994,0.894 -1.49,1.342 -0.497,0.447 -0.994,0.944 -1.491,1.44 -0.497,0.398 -0.944,0.895 -1.441,1.342 l -0.049,0.05 h -0.05 v 0.05 c -0.1,0.099 -0.199,0.149 -0.298,0.248 -0.1,0.05 -0.199,0.149 -0.298,0.298 -0.1,0.1 -0.199,0.149 -0.299,0.248 -0.099,0.1 -0.149,0.199 -0.248,0.299 -0.298,0.248 -0.596,0.546 -0.895,0.844 l -0.745,0.746 c -1.441,1.391 -2.782,2.782 -4.174,4.273 v 0.049 c -0.099,0.05 -0.149,0.1 -0.198,0.15 -0.05,0.049 -0.1,0.099 -0.15,0.149 -0.049,0.099 -0.148,0.199 -0.248,0.298 -0.646,0.695 -1.292,1.391 -1.888,2.087 -0.646,0.645 -1.242,1.341 -1.888,2.087 -0.298,0.347 -0.646,0.695 -0.944,1.093 -0.199,0.199 -0.348,0.397 -0.547,0.596 -0.198,0.249 -0.397,0.447 -0.596,0.696 -0.05,0.049 -0.099,0.099 -0.099,0.149 -1.69,1.937 -3.28,3.925 -4.87,5.913 -0.149,0.198 -0.298,0.347 -0.397,0.546 -0.249,0.249 -0.447,0.547 -0.646,0.845 -0.348,0.447 -0.696,0.894 -0.994,1.341 -0.199,0.249 -0.397,0.497 -0.547,0.746 -0.496,0.596 -0.944,1.192 -1.441,1.838 -0.497,0.646 -0.944,1.292 -1.391,1.988 -0.05,0.099 -0.149,0.198 -0.199,0.298 -0.149,0.149 -0.248,0.298 -0.347,0.497 -0.149,0.198 -0.299,0.447 -0.447,0.645 -0.746,0.994 -1.392,1.988 -2.088,2.982 -0.794,1.192 -1.59,2.435 -2.384,3.677 -0.05,0 -0.05,0 -0.05,0.049 -0.646,0.945 -1.242,1.889 -1.789,2.833 -0.944,1.441 -1.838,2.931 -2.683,4.422 -0.099,0.149 -0.199,0.298 -0.249,0.497 h -0.049 v 0.05 c -0.298,0.546 -0.646,1.093 -0.994,1.689 -0.845,1.441 -1.64,2.931 -2.435,4.472 -0.745,1.341 -1.441,2.683 -2.087,4.074 -0.049,0 -0.049,0.05 -0.049,0.05 l -0.05,0.049 v 0.05 c -0.894,1.739 -1.739,3.478 -2.584,5.218 -0.944,1.987 -1.838,3.975 -2.683,6.012 -0.099,0.248 -0.199,0.447 -0.298,0.695 l -0.05,0.05 c -0.745,1.739 -1.49,3.528 -2.136,5.366 -0.199,0.398 -0.348,0.845 -0.497,1.292 -0.1,0.1 -0.149,0.199 -0.149,0.348 -0.149,0.398 -0.298,0.845 -0.447,1.242 -0.448,1.044 -0.795,2.087 -1.143,3.131 -0.1,0.198 -0.199,0.447 -0.249,0.645 -0.248,0.646 -0.447,1.243 -0.645,1.889 -0.15,0.298 -0.249,0.546 -0.299,0.844 v 0.05 c -0.049,0.099 -0.099,0.248 -0.149,0.348 -0.198,0.397 -0.298,0.795 -0.397,1.242 v 0.05 c -0.398,0.994 -0.746,1.987 -0.994,2.981 v 0.099 0.05 c -0.099,0.149 -0.149,0.249 -0.149,0.397 -0.149,0.299 -0.249,0.646 -0.298,0.994 -0.05,0.1 -0.1,0.199 -0.1,0.348 v 0.05 c -0.049,0.05 -0.049,0.099 -0.049,0.149 -0.1,0.099 -0.1,0.199 -0.149,0.348 -0.15,0.347 -0.249,0.695 -0.298,1.093 0,0.05 -0.05,0.149 -0.05,0.199 -0.348,0.944 -0.596,1.888 -0.795,2.882 -0.05,0.099 -0.1,0.198 -0.1,0.298 -0.099,0.099 -0.149,0.248 -0.099,0.348 -0.099,0.298 -0.199,0.596 -0.248,0.894 -0.348,1.143 -0.646,2.286 -0.895,3.428 -0.05,0.149 -0.05,0.249 -0.099,0.398 -0.447,1.639 -0.845,3.279 -1.143,4.969 -0.099,0.298 -0.149,0.546 -0.199,0.844 -0.149,0.597 -0.248,1.143 -0.347,1.739 -0.448,1.888 -0.845,3.777 -1.143,5.665 v 0.05 c -0.05,0.148 -0.1,0.347 -0.1,0.496 -0.049,0.348 -0.149,0.646 -0.149,0.994 -0.05,0.149 -0.099,0.348 -0.099,0.497 -0.05,0 -0.05,0.05 0,0.099 -0.05,0.05 -0.05,0.1 -0.05,0.1 v 0.05 c -0.298,1.639 -0.547,3.229 -0.745,4.869 v 0.05 c -0.1,0.596 -0.199,1.142 -0.249,1.739 -0.099,0.695 -0.199,1.391 -0.248,2.087 -0.099,0.447 -0.149,0.944 -0.199,1.391 -0.05,0.447 -0.149,0.844 -0.149,1.292 -0.05,0.447 -0.099,0.844 -0.149,1.292 -0.05,0.198 -0.05,0.397 -0.05,0.596 v 0.198 c -0.049,0.15 -0.049,0.249 -0.049,0.398 v 0.1 c -0.1,0.447 -0.149,0.944 -0.149,1.391 v 0.099 c -0.1,0.745 -0.15,1.491 -0.249,2.236 -0.05,0.944 -0.149,1.888 -0.149,2.832 v 0.1 c -0.05,0.248 -0.099,0.497 -0.05,0.745 0,0.199 -0.049,0.348 -0.049,0.547 -0.05,0.596 -0.1,1.192 -0.1,1.788 -0.049,0.746 -0.099,1.491 -0.099,2.236 -0.05,0.398 -0.05,0.746 -0.05,1.143 -0.049,0.298 -0.049,0.547 -0.049,0.795 0,0.05 0,0.099 0.049,0.149 -0.049,0.05 0,0.149 0,0.199 -0.049,0.348 -0.049,0.695 -0.049,1.093 -0.05,0.199 -0.05,0.398 -0.05,0.646 v 0.447 c -0.05,0.845 -0.05,1.64 -0.05,2.485 v 0.496 c 0.845,0.199 1.739,0.448 2.683,0.696 0.199,0.099 0.398,0.149 0.597,0.199 0.298,0.05 0.645,0.149 0.993,0.248 0.696,0.149 1.441,0.348 2.187,0.547 0.795,0.199 1.59,0.397 2.385,0.596 0.447,0.099 0.944,0.249 1.441,0.348 v 0.049 c 0.149,0 0.348,0.05 0.546,0.1 0.845,0.199 1.739,0.398 2.634,0.646 0.347,0.099 0.695,0.149 1.093,0.248 v 0.05 c 0.944,0.199 1.888,0.398 2.882,0.646 0.546,0.099 1.142,0.248 1.739,0.398 0.348,0.099 0.745,0.198 1.142,0.298 0.199,0.049 0.398,0.099 0.646,0.149 h 0.05 c 0.447,0.099 0.944,0.199 1.441,0.347 0.547,0.1 1.093,0.249 1.689,0.348 h 0.1 c 0.596,0.149 1.192,0.298 1.789,0.448 0.198,0.049 0.447,0.099 0.695,0.149 h 0.05 c 0.099,0.049 0.249,0.049 0.348,0.099 0.298,0.05 0.546,0.099 0.845,0.199 0.347,0.049 0.695,0.149 1.043,0.248 0.397,0.05 0.845,0.149 1.242,0.249 0.348,0.099 0.745,0.149 1.093,0.248 0.05,0 0.1,0 0.149,0.05 0.448,0.099 0.895,0.198 1.342,0.248 0.248,0.099 0.546,0.149 0.795,0.199 0.795,0.198 1.64,0.348 2.435,0.546 0.198,0.05 0.348,0.05 0.546,0.1 1.242,0.248 2.584,0.546 3.925,0.844 0.199,0 0.398,0.05 0.597,0.1 0.497,0.099 0.994,0.199 1.54,0.298 0.249,0.05 0.497,0.099 0.795,0.199 0.348,0.049 0.745,0.099 1.143,0.199 0.447,0.099 0.944,0.198 1.391,0.298 0.895,0.149 1.839,0.348 2.783,0.546 0.745,0.149 1.49,0.298 2.285,0.447 2.187,0.398 4.423,0.845 6.758,1.292 3.429,0.646 7.006,1.242 10.633,1.888 2.385,0.398 4.82,0.845 7.304,1.242 0.1,0 0.249,0.05 0.348,0.05 0.199,0.05 0.348,0.05 0.547,0.1 0.496,0.099 0.993,0.149 1.49,0.248 1.242,0.199 2.485,0.398 3.777,0.596 0.099,0 0.198,0.05 0.298,0.05 0.298,0.05 0.646,0.1 0.944,0.149 0.05,0 0.149,0.05 0.198,0.05 h 0.15 0.099 c 0.099,0.049 0.149,0.049 0.248,0.049 2.684,0.448 5.466,0.845 8.249,1.243 1.242,0.199 2.534,0.397 3.776,0.546 4.124,0.597 8.298,1.143 12.571,1.69 0.397,0.049 0.845,0.099 1.242,0.149 2.385,0.298 4.82,0.596 7.255,0.844 1.242,0.149 2.484,0.299 3.726,0.447 0.547,0.05 1.093,0.15 1.69,0.15 1.093,0.149 2.186,0.298 3.279,0.397 0.397,0.05 0.795,0.099 1.242,0.099 0.845,0.1 1.69,0.199 2.534,0.249 0.845,0.099 1.64,0.149 2.485,0.249 2.037,0.198 4.124,0.397 6.161,0.596 h 0.248 c 1.74,0.149 3.479,0.248 5.218,0.447 0.993,0.05 1.987,0.149 2.981,0.248 h 0.05 0.049 c 0.199,0.05 0.398,0.05 0.597,0.05 0.596,0.05 1.142,0.099 1.689,0.149 0.249,0 0.447,0.05 0.696,0.05 2.633,0.199 5.366,0.348 8.049,0.546 0.745,0.05 1.54,0.1 2.286,0.149 2.534,0.149 5.018,0.299 7.602,0.398 0.249,0.05 0.497,0.05 0.745,0.05 0.944,0.049 1.839,0.099 2.783,0.149 0.248,0 0.497,0 0.695,0.049 h 0.945 c 0.646,0.05 1.242,0.05 1.888,0.1 0.546,0 1.142,0.049 1.689,0.049 3.727,0.149 7.403,0.249 11.13,0.348 4.174,-0.099 8.348,-0.199 12.472,-0.397 1.093,0 2.136,-0.05 3.18,-0.1 0.248,-0.049 0.447,-0.049 0.695,-0.049 1.342,-0.1 2.684,-0.149 4.025,-0.199 0.298,0 0.596,-0.05 0.895,-0.05 1.043,-0.049 2.086,-0.099 3.13,-0.199 0.894,-0.049 1.739,-0.099 2.583,-0.149 0.746,0 1.442,-0.049 2.137,-0.099 0.646,-0.05 1.243,-0.05 1.889,-0.099 0.447,-0.05 0.844,-0.1 1.291,-0.1 1.441,-0.099 2.832,-0.198 4.224,-0.298 0.646,-0.049 1.341,-0.099 1.987,-0.149 0.795,-0.05 1.64,-0.149 2.435,-0.199 h 0.05 c 2.335,-0.198 4.67,-0.397 6.956,-0.596 2.534,-0.248 5.118,-0.447 7.652,-0.695 1.341,-0.1 2.683,-0.249 4.024,-0.398 1.193,-0.1 2.336,-0.199 3.479,-0.348 1.54,-0.199 3.08,-0.348 4.571,-0.497 0.944,-0.099 1.839,-0.199 2.782,-0.348 h 0.05 c 2.435,-0.248 4.82,-0.546 7.205,-0.844 h 0.05 c 2.136,-0.249 4.223,-0.547 6.31,-0.795 0.249,-0.05 0.497,-0.1 0.745,-0.1 0.298,-0.049 0.597,-0.099 0.895,-0.149 1.739,-0.248 3.478,-0.497 5.217,-0.695 0.298,-0.05 0.596,-0.1 0.845,-0.149 0.994,-0.149 1.938,-0.249 2.882,-0.398 0.894,-0.149 1.788,-0.248 2.683,-0.397 0.497,-0.05 0.994,-0.149 1.49,-0.199 1.59,-0.249 3.18,-0.497 4.771,-0.746 0.099,0 0.248,0 0.347,-0.049 h 0.149 c 0.398,-0.05 0.746,-0.149 1.143,-0.199 2.186,-0.348 4.323,-0.696 6.46,-1.044 1.59,-0.248 3.179,-0.546 4.72,-0.794 1.54,-0.249 3.081,-0.547 4.621,-0.796 1.242,-0.198 2.484,-0.447 3.677,-0.645 0.298,-0.05 0.546,-0.1 0.795,-0.149 1.49,-0.249 2.981,-0.547 4.422,-0.795 2.186,-0.448 4.373,-0.845 6.459,-1.243 3.429,-0.645 6.758,-1.291 9.938,-1.987 0.099,0 0.199,-0.05 0.298,-0.05 3.081,-0.646 6.012,-1.292 8.845,-1.888 0.248,-0.05 0.447,-0.099 0.646,-0.149 0.348,-0.099 0.646,-0.149 0.993,-0.199 1.094,-0.248 2.186,-0.497 3.23,-0.745 0.646,-0.149 1.342,-0.298 1.988,-0.447 0.894,-0.199 1.788,-0.398 2.633,-0.597 0.546,-0.148 1.143,-0.248 1.689,-0.397 h 0.05 c 0.745,-0.199 1.491,-0.348 2.236,-0.547 0.149,-0.049 0.298,-0.049 0.447,-0.099 1.143,-0.249 2.286,-0.547 3.429,-0.795 0.298,-0.099 0.646,-0.199 0.944,-0.248 0.099,0 0.198,-0.05 0.298,-0.05 1.192,-0.298 2.286,-0.547 3.379,-0.845 0.397,-0.099 0.795,-0.199 1.192,-0.298 1.988,-0.497 3.826,-0.944 5.515,-1.391 0.05,-0.05 0.1,-0.05 0.15,-0.05 0.298,-0.05 0.546,-0.149 0.795,-0.248 C -1.491,0.646 -0.696,0.447 0,0.248 Z m -368.833,51.129 c 4.521,18.434 11.378,35.577 20.173,51.178 4.372,7.951 9.292,15.453 14.707,22.559 6.311,8.347 13.168,16.049 20.571,23.105 7.95,7.652 16.497,14.558 25.54,20.62 l -0.05,-1.441 -0.348,-12.422 c -0.745,-21.713 7.304,-36.918 16.497,-47.104 -1.69,-3.13 -3.826,-7.702 -5.516,-11.478 l -0.199,-0.397 c -0.248,-0.547 -0.546,-1.044 -0.745,-1.59 -0.596,-1.342 -1.192,-2.684 -1.739,-4.025 -0.149,-0.398 -0.248,-0.596 -0.248,-0.596 -4.522,-11.279 -6.957,-23.602 -7.006,-36.471 v -0.298 c 0,-4.125 0.298,-8.249 0.795,-12.323 -39.154,-5.814 -70.259,-13.167 -87.302,-17.59 0.994,9.391 2.584,18.882 4.87,28.273 m 127.946,74.78 c -0.05,0.1 -1.888,4.323 -3.677,9.987 -0.298,0.944 -0.596,1.938 -0.894,2.932 0,0 0.397,-0.348 1.242,-0.944 0.298,-0.248 0.695,-0.546 1.043,-0.745 0.944,-0.696 1.888,-1.342 2.882,-1.839 0.547,-0.348 1.093,-0.596 1.64,-0.844 2.136,-1.193 6.906,-4.224 12.173,-7.305 2.236,-1.291 4.621,-2.583 6.907,-3.726 1.441,0.646 2.882,1.292 4.373,1.838 0.794,0.348 1.639,0.646 2.484,0.944 1.043,0.398 2.087,0.746 3.13,1.044 0.348,0.149 0.745,0.248 1.143,0.348 0.398,0.099 0.746,0.248 1.143,0.347 0.397,0.1 0.795,0.199 1.193,0.299 1.043,0.298 2.136,0.546 3.179,0.745 0.298,0.099 0.597,0.149 0.845,0.199 1.441,0.298 2.832,0.546 4.273,0.745 0.547,0.099 1.044,0.149 1.59,0.199 1.342,0.198 2.683,0.298 4.075,0.397 0.099,0 0.199,0.05 0.298,0 1.689,0.149 3.428,0.199 5.167,0.199 29.913,0 55.85,-16.894 68.967,-41.589 -1.739,0.249 -3.478,0.497 -5.217,0.745 -3.478,0.497 -7.006,0.944 -10.534,1.342 -1.739,0.199 -3.528,0.398 -5.316,0.546 -1.69,0.199 -3.429,0.348 -5.168,0.498 h -0.149 c -15.552,1.192 -31.303,0.944 -46.458,-2.584 -4.422,-1.044 -8.646,-2.733 -12.869,-4.273 -2.982,-1.094 -5.963,-2.137 -9.044,-2.833 -0.248,-0.049 -0.546,-0.099 -0.794,-0.149 -7.205,-1.639 -14.857,-1.689 -22.211,-0.944 -4.77,0.497 -9.49,1.292 -14.111,2.385 -0.199,0.05 -0.348,0.099 -0.497,0.099 -2.783,0.895 -5.416,1.988 -7.801,3.528 2.285,0.249 4.72,0.597 7.155,0.994 2.285,0.348 4.521,0.795 6.608,1.292 l 3.876,0.944 11.677,2.932 -15.056,5.466 c -0.149,0.049 -0.745,0.248 -1.64,0.695 -3.329,1.441 -11.229,5.516 -18.434,13.267 -5.267,5.515 -10.186,13.018 -12.819,22.856 4.869,-5.565 11.179,-11.13 18.732,-14.26 3.826,-1.64 8,-2.634 12.422,-2.584 l 7.503,-0.099 z m 53.464,-76.867 c -0.149,0 -0.298,0.05 -0.547,0.05 v -0.05 c -26.881,-0.596 -52.569,-2.733 -76.072,-5.565 -0.348,3.081 -0.596,6.161 -0.596,9.292 0,1.192 0.05,2.434 0.1,3.627 0.198,3.478 0.596,6.857 1.192,10.186 3.329,0.596 11.329,1.987 22.707,3.329 1.889,0.199 3.826,0.397 5.864,0.646 1.59,0.149 3.229,0.348 4.919,0.497 h 1.093 l 15.801,1.242 c 0.248,0.05 0.447,0.05 0.695,0.099 0.497,0.05 1.044,0.05 1.54,0.05 l 0.547,0.05 c 8.546,0.447 17.739,0.745 27.477,0.745 22.41,0 47.502,-1.54 72.694,-6.31 0.646,-3.677 1.143,-7.404 1.242,-11.18 0.1,-0.994 0.1,-1.988 0.1,-2.981 0,-3.18 -0.249,-6.361 -0.597,-9.491 -23.949,2.932 -50.185,5.168 -77.612,5.764 v 0.05 c -0.199,0 -0.348,-0.05 -0.547,-0.05 m -95.053,123.027 c 0.944,0.597 1.839,1.143 2.782,1.69 11.628,7.006 23.95,12.621 36.77,16.844 0.049,0 0.049,0 0.099,0.05 0.05,0 0.05,0 0.099,0.049 17.64,5.814 36.273,8.894 55.204,8.894 h 0.099 0.099 c 47.452,0 92.619,-19.279 126.705,-52.42 7.353,-7.106 14.21,-14.857 20.421,-23.254 5.317,-7.106 10.186,-14.658 14.559,-22.608 8.497,-15.354 15.155,-32.198 19.627,-50.185 2.335,-9.391 3.875,-18.882 4.869,-28.273 -0.149,0.05 -0.298,0.05 -0.447,0.1 -16.844,4.422 -47.204,11.527 -85.364,17.291 0.547,3.975 0.845,8 0.845,12.074 v 0.448 c 0,55.402 -45.117,100.518 -100.569,100.518 -16.297,0 -31.75,-3.875 -45.365,-10.881 -7.85,5.664 -14.906,12.173 -20.073,20.421 -1.69,2.634 -3.379,5.317 -5.069,7.95 l -0.497,-15.8 c -0.347,-8.249 2.336,-17.987 4.671,-24.695 -15.403,5.664 -25.887,26.185 -26.037,26.483 l -6.26,12.422 -0.398,0.795 c 1.093,0.746 2.137,1.392 3.23,2.087 M 20.273,8.844 v 0.05 c -0.497,15.751 -2.684,31.751 -6.609,47.651 -2.385,9.838 -5.416,19.428 -9.043,28.719 -3.031,7.851 -6.509,15.454 -10.335,22.807 -4.224,8.099 -8.944,15.9 -14.062,23.354 0,0 -0.049,0 -0.049,0.049 -8.597,12.422 -18.435,23.851 -29.416,34.136 -10.086,9.391 -21.068,17.838 -32.893,25.241 -24.943,15.503 -52.123,25.093 -79.998,28.67 -0.496,0.1 -0.994,0.199 -1.54,0.249 -7.652,1.093 -15.801,1.391 -23.155,1.341 -0.149,0 -0.298,0.05 -0.497,0.05 v -0.05 h -0.198 v 0.05 c -0.199,0 -0.348,-0.05 -0.547,-0.05 -3.727,0 -7.204,-0.149 -10.285,-0.298 -1.69,-0.099 -3.379,-0.199 -5.019,-0.348 -4.67,-0.298 -7.652,-0.646 -7.751,-0.695 l 0.05,-0.1 c -28.422,-3.428 -56.148,-13.018 -81.638,-28.819 -24.347,-15.155 -45.166,-34.98 -61.563,-58.333 -5.168,-7.404 -9.937,-15.155 -14.211,-23.254 -3.875,-7.304 -7.403,-14.907 -10.434,-22.757 -3.876,-9.64 -7.056,-19.627 -9.59,-29.962 -3.975,-16.099 -6.111,-32.347 -6.609,-48.297 -0.049,-2.335 -0.099,-4.671 -0.099,-7.006 0,-1.64 0,-3.23 0.099,-4.869 v -0.05 c 0,-1.938 0.05,-3.925 0.199,-5.863 -0.049,-0.249 0,-0.497 0.05,-0.745 0.05,-1.889 0.149,-3.777 0.298,-5.615 v -0.05 c 1.938,-26.235 8.348,-51.576 18.633,-74.979 v -0.05 c 0,-0.199 0.099,-0.298 0.199,-0.497 v -0.049 c 3.13,-7.155 6.608,-14.062 10.484,-20.77 5.267,-9.291 11.18,-18.136 17.689,-26.483 l 0.05,-0.05 c 4.322,-5.565 8.844,-10.832 13.664,-15.9 0,-0.05 0,-0.05 0.05,-0.05 3.577,-3.826 7.304,-7.453 11.179,-10.981 13.217,-12.025 28.024,-22.409 44.123,-30.658 12.174,-6.31 25.093,-11.428 38.707,-15.154 0.149,-0.05 0.248,-0.05 0.398,-0.1 0.049,0 0.149,-0.049 0.198,-0.049 16.795,-4.621 33.838,-6.907 50.781,-6.957 v -0.049 h 2.038 v 0.049 c 16.943,0.05 33.986,2.336 50.731,6.957 0.049,0 0.149,0.049 0.199,0.049 0.149,0.05 0.248,0.05 0.397,0.1 13.664,3.726 26.633,8.844 38.807,15.154 15.949,8.249 30.508,18.435 43.576,30.31 h 0.049 c 3.528,3.18 6.957,6.509 10.236,9.938 5.218,5.366 10.087,10.981 14.708,16.894 l 0.05,0.049 c 6.658,8.547 12.72,17.54 18.086,26.981 2.484,4.323 4.82,8.745 6.956,13.267 0.398,0.745 0.746,1.49 1.093,2.235 0.994,2.137 1.988,4.224 2.932,6.41 v 0.05 c 10.236,23.651 16.596,49.191 18.434,75.675 v 0.05 c 0.1,1.54 0.199,3.08 0.249,4.67 0.149,2.435 0.248,4.87 0.248,7.304 0.05,1.292 0.05,2.534 0.05,3.826 0,2.534 -0.05,5.068 -0.149,7.602"
               style="fill:#100f0d;fill-opacity:1;fill-rule:nonzero;stroke:none"
               id="path1127" /></g></g></g></g></g></svg>
